<svg xmlns="http://www.w3.org/2000/svg" xmlns:xlink="http://www.w3.org/1999/xlink" width="100" height="40" viewBox="0 0 100 40">
  <defs>
    <clipPath id="clip-path">
      <rect id="Rectangle_18" data-name="Rectangle 18" width="100" height="40" transform="translate(1140 1310)" fill="#7a7a7a"/>
    </clipPath>
  </defs>
  <g id="Mask_Group_2" data-name="Mask Group 2" transform="translate(-1140 -1310)" clip-path="url(#clip-path)">
    <g id="svgexport-19" transform="translate(1142.689 1310)">
      <g id="Group_3" data-name="Group 3" transform="translate(0)">
        <path id="Path_8" data-name="Path 8" d="M18.4,5.223A7.22,7.22,0,0,0,20.067.065a7.208,7.208,0,0,0-4.773,2.462,6.76,6.76,0,0,0-1.711,4.958A6.016,6.016,0,0,0,18.4,5.223m1.65,2.618c-2.658-.158-4.919,1.5-6.189,1.5S10.644,7.921,8.541,7.959a7.843,7.843,0,0,0-6.665,4.035C-.981,16.9,1.122,24.178,3.9,28.174c1.349,1.977,2.975,4.154,5.117,4.075,2.024-.079,2.817-1.306,5.278-1.306s3.173,1.306,5.316,1.267c2.222-.04,3.611-1.978,4.96-3.957A17.531,17.531,0,0,0,26.791,23.7a7.188,7.188,0,0,1-4.324-6.528,7.321,7.321,0,0,1,3.491-6.132,7.609,7.609,0,0,0-5.912-3.2" transform="translate(-0.513 -0.065)" fill="#e6e6e6"/>
        <path id="Path_9" data-name="Path 9" d="M11.79,1.109c5.778,0,9.8,3.969,9.8,9.748,0,5.8-4.106,9.789-9.947,9.789h-6.4V30.785H.625V1.109ZM5.247,16.78h5.3c4.024,0,6.315-2.159,6.315-5.9S14.575,5,10.572,5H5.247V16.78ZM22.8,24.636c0-3.784,2.91-6.108,8.069-6.4l5.943-.35V16.225c0-2.406-1.63-3.846-4.354-3.846-2.58,0-4.19,1.234-4.582,3.167h-4.21c.248-3.908,3.591-6.787,8.956-6.787,5.262,0,8.626,2.776,8.626,7.116v14.91H36.977V27.227h-.1a7.762,7.762,0,0,1-6.851,3.928C25.771,31.155,22.8,28.523,22.8,24.636Zm14.012-1.954V20.975l-5.345.329c-2.662.185-4.168,1.357-4.168,3.208,0,1.892,1.568,3.126,3.962,3.126C34.376,27.638,36.812,25.5,36.812,22.682Zm8.47,16.061v-3.6a8.282,8.282,0,0,0,1.444.082c2.064,0,3.178-.863,3.859-3.085,0-.041.393-1.316.393-1.337L43.135,9.15h4.828l5.49,17.6h.082l5.49-17.6h4.705L55.6,31.916c-1.856,5.244-4,6.931-8.5,6.931A17.272,17.272,0,0,1,45.282,38.744Z" transform="translate(30.891 1.154)" fill="#e6e6e6"/>
      </g>
    </g>
  </g>
</svg>
