<svg xmlns="http://www.w3.org/2000/svg" width="50" height="50" viewBox="0 0 50 50">
  <g id="arrow-right-circle_-_Copy" data-name="arrow-right-circle - Copy" transform="translate(130.521 130.521) rotate(180)" opacity="0.9">
    <path id="Subtraction_1" data-name="Subtraction 1" d="M25,50a24.593,24.593,0,0,1-9.692-1.978A25.341,25.341,0,0,1,1.978,34.692a24.738,24.738,0,0,1,0-19.384,25.34,25.34,0,0,1,13.33-13.33,24.738,24.738,0,0,1,19.384,0,25.342,25.342,0,0,1,13.331,13.33,24.737,24.737,0,0,1,0,19.384A25.343,25.343,0,0,1,34.692,48.022,24.593,24.593,0,0,1,25,50ZM13.571,22.857a2.143,2.143,0,1,0,0,4.286H32.142l-8,8.571a1.984,1.984,0,0,0-.573,1.513,2.2,2.2,0,0,0,2.145,2.058,2.281,2.281,0,0,0,1.572-.714L38.714,26.428a2.373,2.373,0,0,0,0-3l-11.428-12a2.124,2.124,0,1,0-3.143,2.857l8,8.571Z" transform="translate(80.521 80.521)" fill="#e6e6e6"/>
  </g>
</svg>
