<svg id="coin" xmlns="http://www.w3.org/2000/svg" width="50.002" height="50" viewBox="0 0 50.002 50">
  <path id="coin-2" data-name="coin" d="M99.967,125.146l1.8,3.546a5.567,5.567,0,0,0-1.923,3.846q.24,3.846,6.16,6.671T121,142.154q9.075-.121,14.994-2.944t6.16-6.671a5.562,5.562,0,0,0-1.923-3.846l1.863-3.546a12.079,12.079,0,0,1,2.885,3.425A8.124,8.124,0,0,1,146,132.538q-.3,5.95-7.392,9.646T121,146q-10.517-.121-17.608-3.815T96,132.538a7.945,7.945,0,0,1,1.052-3.967,12.52,12.52,0,0,1,2.915-3.425Zm0-11.538,1.8,3.546A5.567,5.567,0,0,0,99.848,121q.24,3.846,6.16,6.671T121,130.615q9.075-.121,14.994-2.944t6.16-6.671a5.562,5.562,0,0,0-1.923-3.846l1.863-3.546a12.079,12.079,0,0,1,2.885,3.425A8.124,8.124,0,0,1,146,121q-.3,5.95-7.392,9.646T121,134.462q-10.517-.121-17.608-3.815T96,121a7.945,7.945,0,0,1,1.052-3.967,12.52,12.52,0,0,1,2.915-3.425ZM121,122.923q-10.517-.121-17.608-3.815T96,109.462q.3-5.95,7.392-9.646T121,96q10.517.121,17.608,3.815T146,109.462q-.3,5.95-7.392,9.646T121,122.923Zm0-3.846q9.075-.121,14.994-2.944t6.16-6.671q-.24-3.846-6.16-6.671T121,99.846q-9.075.121-14.994,2.944t-6.16,6.671q.24,3.846,6.16,6.671T121,119.077Z" transform="translate(-96 -96)" fill="#8ca3b8"/>
</svg>
