<svg id="Component_9_1" data-name="Component 9 – 1" xmlns="http://www.w3.org/2000/svg" xmlns:xlink="http://www.w3.org/1999/xlink" width="50" height="50" viewBox="0 0 50 50">
  <defs>
    <clipPath id="clip-path">
      <rect id="Rectangle_58" data-name="Rectangle 58" width="50" height="50" transform="translate(230 1920)" fill="#8ca3b8" stroke="#707070" stroke-width="1"/>
    </clipPath>
  </defs>
  <g id="Mask_Group_22" data-name="Mask Group 22" transform="translate(-230 -1920)" clip-path="url(#clip-path)">
    <path id="poker" d="M53.712,38.579A1.781,1.781,0,0,1,55.33,37.3c.893,0,1.618.517,1.618,1.825,0,1.389-1.984,3.228-2.845,3.9a.634.634,0,0,1-.781,0c-.861-.672-2.845-2.511-2.845-3.9,0-1.308.724-1.825,1.618-1.825A1.723,1.723,0,0,1,53.712,38.579ZM34.491,12.561c.861-.672,2.845-2.511,2.845-3.9,0-1.308-.724-1.825-1.618-1.825A1.781,1.781,0,0,0,34.1,8.11a1.723,1.723,0,0,0-1.618-1.274c-.894,0-1.618.517-1.618,1.825,0,1.389,1.984,3.228,2.845,3.9A.634.634,0,0,0,34.491,12.561ZM67.734,32.422V7.813a3.919,3.919,0,0,0-3.922-3.906H62.757a7.74,7.74,0,0,1,1.055,3.906V42.188a7.739,7.739,0,0,1-1.055,3.906h1.055a3.919,3.919,0,0,0,3.922-3.906,1.961,1.961,0,0,1,3.923,0A7.838,7.838,0,0,1,63.812,50H31.845A7.838,7.838,0,0,1,24,42.188V7.813A7.838,7.838,0,0,1,31.845,0H63.812a7.838,7.838,0,0,1,7.845,7.813V32.422a1.961,1.961,0,0,1-3.922,0ZM55.967,3.906H31.845a3.919,3.919,0,0,0-3.922,3.906V42.188a3.919,3.919,0,0,0,3.922,3.906H55.967a3.919,3.919,0,0,0,3.923-3.906V7.813A3.919,3.919,0,0,0,55.967,3.906Zm-8.09,12.5a5.977,5.977,0,0,1,4.334,1.655,6.746,6.746,0,0,1,1.795,4.982c0,2.026-1.108,4.365-3.293,6.952a34.151,34.151,0,0,1-4.789,4.6,3.6,3.6,0,0,1-4.427,0A34.151,34.151,0,0,1,36.707,30c-2.185-2.587-3.293-4.926-3.293-6.952a6.746,6.746,0,0,1,1.795-4.982,6.362,6.362,0,0,1,8.527-.031,5.941,5.941,0,0,1,4.142-1.624Zm0,3.906a2.558,2.558,0,0,0-2.288,1.831,1.948,1.948,0,0,1-1.879,1.439h-.033a1.943,1.943,0,0,1-1.862-1.5,2.389,2.389,0,0,0-2.273-1.774c-1.091,0-2.206.324-2.206,2.73,0,2.055,3.205,5.8,6.374,8.313,3.168-2.516,6.374-6.257,6.374-8.312,0-2.406-1.116-2.73-2.206-2.73Z" transform="translate(207 1920)" fill="#8ca3b8"/>
  </g>
</svg>
