<svg id="Group_16" data-name="Group 16" xmlns="http://www.w3.org/2000/svg" xmlns:xlink="http://www.w3.org/1999/xlink" width="210.916" height="80" viewBox="0 0 210.916 80">
  <defs>
    <clipPath id="clip-path">
      <rect id="Rectangle_23" data-name="Rectangle 23" width="210.915" height="80" fill="#8ca3b8"/>
    </clipPath>
  </defs>
  <g id="Group_10" data-name="Group 10" clip-path="url(#clip-path)">
    <path id="Path_40" data-name="Path 40" d="M83.865,0H71.972L47.633,48.92,35.821,33.908s10.423-3.825,10.423-15.4S39.033,0,29.543,0H0V51.116H10.262V36.236H23.651L35.427,51.2h14l-.068-.086h9.2L78.186,11.472,97.91,51.116H109.8L84.5,0ZM24.293,9.742h5.251s6.832,1.236,6.832,8.448-5.314,8.3-7.275,8.3H10.262V9.742Z" fill="#8ca3b8"/>
    <path id="Path_41" data-name="Path 41" d="M680.63,25.579,704.614,0H689.851L669.623,20.686h-5.37V0H654.51V51.115h9.742V30.429h5.679L691.749,51.2h14.762Z" transform="translate(-541.398 0)" fill="#8ca3b8"/>
    <path id="Path_42" data-name="Path 42" d="M991.508,41.373V30.428h30.619V20.686H991.508V9.742h31.5V0H981.766V51.115h41.247V41.373Z" transform="translate(-812.097 0.001)" fill="#8ca3b8"/>
    <path id="Path_43" data-name="Path 43" d="M381.9,183.546l6.2,6.326,5.973-6.073,5.973,6.073,6.2-6.326-12.173-12.4Z" transform="translate(-315.897 -141.57)" fill="#8ca3b8"/>
    <path id="Path_44" data-name="Path 44" d="M425.769,261.563l-5.535,6H431.3Z" transform="translate(-347.609 -216.36)" fill="#8ca3b8"/>
    <path id="Path_45" data-name="Path 45" d="M722.49,339.381h-4.513l-6.551,15.993-6.552-15.993H699.54V360.1h3.949V346.542l5.923,13.558h4.026l5.846-13.382V360.1h3.949V339.381Z" transform="translate(-578.645 -280.729)" fill="#8ca3b8"/>
    <path id="Path_46" data-name="Path 46" d="M573.8,347.418c0-6.033-5.166-10.924-11.539-10.924s-11.539,4.891-11.539,10.924,5.166,10.924,11.539,10.924,11.539-4.891,11.539-10.924m-18.77,0a7.243,7.243,0,1,1,7.231,6.821,7.035,7.035,0,0,1-7.231-6.821" transform="translate(-455.544 -278.341)" fill="#8ca3b8"/>
    <path id="Path_47" data-name="Path 47" d="M437.132,350.469h-4.615a7.284,7.284,0,0,1-6.467,3.769,6.832,6.832,0,1,1,0-13.642,7.306,7.306,0,0,1,6.324,3.513h4.676a11.493,11.493,0,0,0-11-7.616c-6.373,0-11.539,4.891-11.539,10.924s5.166,10.924,11.539,10.924a11.473,11.473,0,0,0,11.082-7.872" transform="translate(-342.875 -278.341)" fill="#8ca3b8"/>
    <path id="Path_48" data-name="Path 48" d="M388.31,438.31a2.257,2.257,0,1,0-2.257,2.257,2.257,2.257,0,0,0,2.257-2.257" transform="translate(-317.469 -360.695)" fill="#8ca3b8"/>
  </g>
</svg>
