<svg xmlns="http://www.w3.org/2000/svg" xmlns:xlink="http://www.w3.org/1999/xlink" width="100" height="40" viewBox="0 0 100 40">
  <defs>
    <clipPath id="clip-path">
      <rect id="Rectangle_16" data-name="Rectangle 16" width="100" height="40" transform="translate(1310 1310)" fill="#7a7a7a"/>
    </clipPath>
  </defs>
  <g id="Mask_Group_3" data-name="Mask Group 3" transform="translate(-1310 -1310)" clip-path="url(#clip-path)">
    <g id="svgexport-20" transform="translate(1310 1310.45)">
      <g id="Group_4" data-name="Group 4" transform="translate(43.002 2.076)">
        <path id="Path_10" data-name="Path 10" d="M3.7,17.025V28.553H.029V.086H9.761a8.794,8.794,0,0,1,6.291,2.458,7.891,7.891,0,0,1,2.639,6,7.857,7.857,0,0,1-2.639,6.04,8.779,8.779,0,0,1-6.291,2.42H3.7Zm0-13.433v9.927H9.838a4.909,4.909,0,0,0,3.633-1.467,4.79,4.79,0,0,0,1.472-3.487A4.737,4.737,0,0,0,13.47,5.116,4.77,4.77,0,0,0,9.838,3.611H3.7Zm24.589,4.84A9.1,9.1,0,0,1,34.713,10.6a7.694,7.694,0,0,1,2.352,5.945v12h-3.5V25.847h-.153a6.989,6.989,0,0,1-6.061,3.334,7.886,7.886,0,0,1-5.411-1.905,6.076,6.076,0,0,1-2.18-4.764,5.746,5.746,0,0,1,2.295-4.8,9.649,9.649,0,0,1,6.119-1.791,10.725,10.725,0,0,1,5.373,1.2v-.838a4.146,4.146,0,0,0-1.51-3.239,5.193,5.193,0,0,0-3.557-1.334A5.583,5.583,0,0,0,23.623,14.3l-3.231-2.02A8.977,8.977,0,0,1,28.289,8.432ZM23.547,22.57a2.882,2.882,0,0,0,1.224,2.382,4.5,4.5,0,0,0,2.849.953,5.832,5.832,0,0,0,4.13-1.715,5.373,5.373,0,0,0,1.817-4.02,7.581,7.581,0,0,0-4.78-1.353,6.29,6.29,0,0,0-3.728,1.067A3.251,3.251,0,0,0,23.547,22.57Z" transform="translate(-0.029 -0.086)" fill="#fff"/>
        <path id="Path_11" data-name="Path 11" d="M75.755,13.547,63.518,41.6H59.732l4.55-9.813L56.214,13.547h4l5.813,13.987H66.1l5.66-13.987Z" transform="translate(-18.757 -4.573)" fill="#fff"/>
      </g>
      <path id="Path_12" data-name="Path 12" d="M40.317,23.436A19.189,19.189,0,0,0,40.011,20H24.623v6.288l8.862,0A7.563,7.563,0,0,1,30.2,31.359v4.08h5.275A15.952,15.952,0,0,0,40.317,23.436Z" transform="translate(-8.246 -6.744)" fill="#4285f4"/>
      <path id="Path_13" data-name="Path 13" d="M22.881,34.449A9.942,9.942,0,0,1,8.112,29.276H2.67v4.207a16.387,16.387,0,0,0,14.639,8.99,15.655,15.655,0,0,0,10.847-3.946Z" transform="translate(-0.928 -9.835)" fill="#34a853"/>
      <path id="Path_14" data-name="Path 14" d="M6.729,20.929a9.811,9.811,0,0,1,.512-3.123V13.6H1.8a16.294,16.294,0,0,0,0,14.66l5.442-4.207A9.811,9.811,0,0,1,6.729,20.929Z" transform="translate(-0.057 -4.609)" fill="#fabb05"/>
      <path id="Path_15" data-name="Path 15" d="M17.309,6.574a8.918,8.918,0,0,1,6.285,2.448l4.675-4.655A15.766,15.766,0,0,0,17.309.114,16.389,16.389,0,0,0,2.67,9.1l5.442,4.207A9.8,9.8,0,0,1,17.309,6.574Z" transform="translate(-0.928 -0.114)" fill="#e94235"/>
    </g>
  </g>
</svg>
