<svg id="Component_3_1" data-name="Component 3 – 1" xmlns="http://www.w3.org/2000/svg" width="70" height="70" viewBox="0 0 70 70">
  <path id="Subtraction_3" data-name="Subtraction 3" d="M37.536,70H32.464a32.061,32.061,0,0,1-12.605-2.562,32.78,32.78,0,0,1-17.3-17.3A32.061,32.061,0,0,1,0,37.536V32.464A32.061,32.061,0,0,1,2.562,19.859a32.78,32.78,0,0,1,17.3-17.3A32.061,32.061,0,0,1,32.464,0h5.072A32.061,32.061,0,0,1,50.141,2.562a32.78,32.78,0,0,1,17.3,17.3A32.061,32.061,0,0,1,70,32.464v5.072a32.061,32.061,0,0,1-2.562,12.605,32.78,32.78,0,0,1-17.3,17.3A32.061,32.061,0,0,1,37.536,70ZM35.263,53.524h1.824c1.724,0,3.73-.009,5.713-.121,3.424-.167,5.786-1.076,7.657-2.947s2.781-4.233,2.947-7.657c.126-2.177.123-4.382.12-6.516q0-.511,0-1.023,0-.457,0-.914c0-2.169,0-4.412-.119-6.625-.167-3.424-1.076-5.785-2.947-7.657s-4.233-2.78-7.657-2.947c-1.978-.111-3.988-.12-5.716-.12H33.438c-1.729,0-3.74.009-5.714.12-3.424.167-5.786,1.075-7.657,2.947S17.286,24.3,17.12,27.724C17,29.941,17,32.183,17,34.35q0,.456,0,.912t0,.912c0,2.17,0,4.413.119,6.626.167,3.424,1.076,5.786,2.948,7.657s4.233,2.781,7.657,2.947c1.978.111,3.988.12,5.716.12h1.822Zm-.005-8.891a9.357,9.357,0,1,1,6.63-2.741A9.311,9.311,0,0,1,35.257,44.633Zm0-15.46a6.09,6.09,0,1,0,6.09,6.089A6.1,6.1,0,0,0,35.257,29.173ZM45.012,27.7A2.188,2.188,0,1,1,47.2,25.508,2.191,2.191,0,0,1,45.012,27.7Z" fill="#8ca3b8"/>
</svg>
