<svg xmlns="http://www.w3.org/2000/svg" xmlns:xlink="http://www.w3.org/1999/xlink" width="100" height="40" viewBox="0 0 100 40">
  <defs>
    <clipPath id="clip-path">
      <rect id="Rectangle_19" data-name="Rectangle 19" width="100" height="40" transform="translate(800 1310)" fill="#7a7a7a"/>
    </clipPath>
  </defs>
  <g id="Mask_Group_1" data-name="Mask Group 1" transform="translate(-800 -1310)" clip-path="url(#clip-path)">
    <g id="svgexport-18" transform="translate(817.535 1310)">
      <rect id="Rectangle_20" data-name="Rectangle 20" width="19.319" height="31.444" transform="translate(22.811 4.277)" fill="#ff5f00"/>
      <path id="Path_6" data-name="Path 6" d="M24.922,20.122A19.937,19.937,0,0,1,32.586,4.4,20.027,20.027,0,0,0,5.446,33.691a20.116,20.116,0,0,0,27.14,2.156A19.937,19.937,0,0,1,24.922,20.122Z" transform="translate(-0.122 -0.121)" fill="#eb001b"/>
      <path id="Path_7" data-name="Path 7" d="M79.367,33.084v-1.12h.279v-.232h-.663v.232h.262v1.12Zm1.288,0V31.733h-.2l-.234.965-.234-.965h-.2v1.351h.145V32.061l.217.878h.15l.217-.878v1.023Zm.63-12.966A20.071,20.071,0,0,1,48.818,35.837a19.953,19.953,0,0,0,0-31.443A20.071,20.071,0,0,1,81.285,20.113Z" transform="translate(-16.354 -0.117)" fill="#f79e1b"/>
    </g>
  </g>
</svg>
