<svg xmlns="http://www.w3.org/2000/svg" xmlns:xlink="http://www.w3.org/1999/xlink" width="172.235" height="60" viewBox="0 0 172.235 60">
  <defs>
    <clipPath id="clip-path">
      <rect id="Rectangle_35" data-name="Rectangle 35" width="172.235" height="60" transform="translate(1112 2751)" fill="#e6e6e6"/>
    </clipPath>
  </defs>
  <g id="Mask_Group_19" data-name="Mask Group 19" transform="translate(-1112 -2751)" clip-path="url(#clip-path)">
    <g id="Bitcoin_Cash_logo" data-name="Bitcoin Cash logo" transform="translate(1112 2768.241)">
      <path id="Path_113" data-name="Path 113" d="M15.976,45.3a9.328,9.328,0,0,0-1.739-.417,12.8,12.8,0,1,1,5.11.3c-.1.016-.229-.032-.274.116ZM22.149,32.9c1.047-.581,1.353-.911,1.566-1.682.435-1.574-.163-2.695-1.821-3.471-.374-.179-.964-.165-1.086-.526s.136-.809.227-1.22c.259-1.167.258-1.158-.912-1.387-.3-.059-.44,0-.488.315-.064.417-.161.827-.25,1.24-.179.8-.179.8-.995.6-.24-.057-.338-.136-.267-.408.145-.549.258-1.108.358-1.664.036-.179.165-.429-.179-.453-.437-.029-.846-.388-1.3-.109-.054.032-.038.179-.057.263-.116.537-.249,1.074-.345,1.61-.059.327-.2.41-.524.331-.732-.179-1.478-.306-2.208-.494-.322-.082-.4.013-.467.311-.272,1.17-.284,1.168.839,1.487a1.236,1.236,0,0,1,.161.038.739.739,0,0,1,.519.905q-.691,3.2-1.374,6.395a.59.59,0,0,1-.739.537c-.358-.043-.775-.347-1.045-.1s-.32.68-.469,1.034a1.574,1.574,0,0,1-.084.2c-.2.335-.039.429.283.487.6.107,1.19.243,1.789.376.794.179.793.179.615,1-.041.2-.079.4-.12.592-.236,1.118-.234,1.109.916,1.32.3.055.435,0,.49-.313q.159-.864.358-1.721c.14-.58.524-.168.8-.168s.469.039.358.42c-.159.537-.233,1.111-.376,1.66-.091.358.038.48.37.553,1.074.231,1.074.24,1.311-.832.1-.447.066-1.041.345-1.3.308-.284.895,0,1.354.032a3.361,3.361,0,0,0,3.952-3.027,2.377,2.377,0,0,0-1-2.5C22.492,33.126,22.328,33.013,22.149,32.9Z" transform="translate(-4.74 -19.779)" fill="#e6e6e6"/>
      <path id="Path_114" data-name="Path 114" d="M53.344,21.486c-.59,2.455-1.176,4.885-1.778,7.386a8.228,8.228,0,0,1,2.147-.483c3.079-.07,5.087,1.6,5.575,4.783a9.683,9.683,0,0,1-6.871,10.9,13.611,13.611,0,0,1-8.289-.589c-.408-.145-.336-.394-.265-.689l3.02-12.6c.607-2.528,1.218-5.054,1.807-7.588a.58.58,0,0,1,.556-.537c1.294-.179,2.58-.4,3.872-.6a1.127,1.127,0,0,1,.225.02Zm1.691,13.507a4.927,4.927,0,0,0-.247-1.737,1.635,1.635,0,0,0-1.379-1.188,3.725,3.725,0,0,0-2.4.428.909.909,0,0,0-.463.639Q49.7,36.712,48.81,40.28c-.089.358-.011.488.336.524a4.609,4.609,0,0,0,3.408-.778,6.205,6.205,0,0,0,2.48-5.033Z" transform="translate(-16.23 -20.275)" fill="#e6e6e6"/>
      <path id="Path_115" data-name="Path 115" d="M227.193,44.019c.537-2.229,1.052-4.418,1.578-6.606,1.168-4.863,2.347-9.723,3.494-14.591a.884.884,0,0,1,.871-.819c1.252-.149,2.5-.358,3.866-.569-.592,2.442-1.17,4.831-1.762,7.264a15,15,0,0,1,2.893-.24c2.848.179,4.172,2.147,4.264,4.609a19.853,19.853,0,0,1-.871,5.131c-.406,1.789-.866,3.561-1.277,5.344-.084.358-.218.5-.615.488-1.124-.032-2.249-.038-3.373,0-.478.016-.5-.147-.406-.537.639-2.635,1.274-5.273,1.888-7.914a5.142,5.142,0,0,0,.211-2.172,1.512,1.512,0,0,0-1.626-1.4,9.357,9.357,0,0,0-1.431.1.613.613,0,0,0-.614.556c-.66,2.818-1.337,5.632-2.009,8.449-.206.855-.415,1.709-.621,2.564-.043.179-.057.345-.326.342C229.962,44.013,228.6,44.019,227.193,44.019Z" transform="translate(-70.167 -20.266)" fill="#e6e6e6"/>
      <path id="Path_116" data-name="Path 116" d="M195.46,31.228a16.234,16.234,0,0,1,5.736.925c.358.134.458.276.358.683-.6,2.378-1.127,4.774-1.732,7.157a10.914,10.914,0,0,0,.216,6.119c.127.4.084.537-.358.581-.914.1-1.827.227-2.73.392-.483.088-.828.045-.948-.5a.207.207,0,0,0-.02-.052c-.318-.7-.324-.707-.946-.286a5.926,5.926,0,0,1-4.681.939,4.827,4.827,0,0,1-3.906-4,9.9,9.9,0,0,1,3.841-10.3A8.7,8.7,0,0,1,195.46,31.228Zm-4.908,9.383a5.536,5.536,0,0,0,.179,1.524,1.846,1.846,0,0,0,2.118,1.5,3.131,3.131,0,0,0,1.968-.882.914.914,0,0,0,.3-.615c.106-.8.211-1.6.388-2.383.331-1.481.716-2.952,1.074-4.426.048-.2.165-.388-.179-.431a4.449,4.449,0,0,0-3.546.809A6.255,6.255,0,0,0,190.552,40.611Z" transform="translate(-58.108 -23.145)" fill="#e6e6e6"/>
      <path id="Path_117" data-name="Path 117" d="M126.4,37.5c-.106,3.426-1.188,6.4-4.131,8.443a7.664,7.664,0,0,1-6.489,1.074,5.131,5.131,0,0,1-3.893-4.262A10.333,10.333,0,0,1,115.874,32.5a7.7,7.7,0,0,1,6.482-1.127A5.4,5.4,0,0,1,126.4,36.5C126.423,36.836,126.4,37.169,126.4,37.5Zm-4.294.358a5.927,5.927,0,0,0-.113-1.208,1.991,1.991,0,0,0-2.63-1.771,3.008,3.008,0,0,0-1.354.716,7.044,7.044,0,0,0-1.662,6.822,1.7,1.7,0,0,0,1.539,1.149,2.832,2.832,0,0,0,2.36-.845,6.942,6.942,0,0,0,1.854-4.856Z" transform="translate(-36.194 -23.112)" fill="#e6e6e6"/>
      <path id="Path_118" data-name="Path 118" d="M143.839,46.9c.642-2.668,1.272-5.285,1.906-7.9.5-2.083,1.018-4.163,1.507-6.25a.748.748,0,0,1,.574-.619,17.62,17.62,0,0,1,6.586-.868,6.035,6.035,0,0,1,2.147.487A4.282,4.282,0,0,1,159.1,35.8a13.412,13.412,0,0,1-.58,3.9c-.537,2.245-1.093,4.486-1.619,6.733-.081.344-.191.483-.567.474-1.143-.027-2.287-.036-3.428,0-.5.016-.474-.161-.385-.537q1.007-4.221,1.982-8.452a5.092,5.092,0,0,0,.156-1.308,1.585,1.585,0,0,0-1.721-1.721c-.442-.011-.88.045-1.32.073a.643.643,0,0,0-.689.6q-.931,3.985-1.891,7.966c-.234.98-.472,1.959-.692,2.941-.07.306-.179.444-.537.437C146.493,46.887,145.185,46.9,143.839,46.9Z" transform="translate(-45.652 -23.149)" fill="#e6e6e6"/>
      <path id="Path_119" data-name="Path 119" d="M213,47.3a11.921,11.921,0,0,1-5.126-1.133c-.322-.163-.429-.283-.25-.642.385-.769.737-1.557,1.059-2.355.179-.438.333-.574.814-.311a7.1,7.1,0,0,0,4.582.834,2.594,2.594,0,0,0,.741-.208,1.169,1.169,0,0,0,.216-2.138,11.292,11.292,0,0,0-1.907-.98,6.7,6.7,0,0,1-2.3-1.578,4.6,4.6,0,0,1,1.641-6.77,10,10,0,0,1,5.058-.855,10.546,10.546,0,0,1,3.628.87c.338.143.444.281.259.646-.4.784-.762,1.583-1.108,2.392-.147.345-.285.415-.648.252a7.179,7.179,0,0,0-3.757-.68,2.4,2.4,0,0,0-.948.267,1.074,1.074,0,0,0-.066,1.92c.895.537,1.85.98,2.766,1.487A4.117,4.117,0,0,1,219.923,41a4.649,4.649,0,0,1-2.444,5.321A9.575,9.575,0,0,1,213,47.3Z" transform="translate(-64.386 -23.121)" fill="#e6e6e6"/>
      <path id="Path_120" data-name="Path 120" d="M89.98,29.878c-.276,1.127-.546,2.206-.8,3.289-.066.281-.267.254-.469.254-1.29,0-2.582.02-3.87-.013-.444-.011-.594.14-.685.553-.417,1.879-.9,3.741-1.3,5.622-.318,1.517.326,2.263,1.88,2.313a6.978,6.978,0,0,0,2.442-.381c.288-.1.4-.057.422.254.075.895.166,1.789.261,2.684a.329.329,0,0,1-.267.4,10.782,10.782,0,0,1-6.355.4c-2.109-.565-2.9-2.165-2.814-4.294a40.1,40.1,0,0,1,1.419-7.1c.537-2.432,1.15-4.849,1.719-7.273.081-.358.179-.551.614-.6,1.222-.145,2.439-.358,3.654-.564.342-.059.42,0,.329.347-.31,1.188-.573,2.387-.895,3.578-.115.424-.081.571.413.56C87.091,29.856,88.509,29.878,89.98,29.878Z" transform="translate(-26.41 -21.432)" fill="#e6e6e6"/>
      <path id="Path_121" data-name="Path 121" d="M168.24,40.623c.127-3.675,1.469-6.7,4.861-8.472a9.66,9.66,0,0,1,8.182-.3c.347.131.4.274.242.6q-.612,1.292-1.159,2.612c-.127.31-.256.37-.565.238a5.677,5.677,0,0,0-3.46-.358,4.258,4.258,0,0,0-3.382,3.512,6.242,6.242,0,0,0,.013,3.315,2.3,2.3,0,0,0,2.3,1.789,7.479,7.479,0,0,0,3.092-.446c.31-.113.46-.116.485.276.061.895.156,1.789.236,2.684.02.2.05.381-.224.481a9.642,9.642,0,0,1-7.066.156c-2.5-1.007-3.469-3.074-3.557-5.641C168.237,40.916,168.24,40.77,168.24,40.623Z" transform="translate(-52.828 -23.106)" fill="#e6e6e6"/>
      <path id="Path_122" data-name="Path 122" d="M104.484,42.988c.107,1.095.208,2.147.315,3.2a.3.3,0,0,1-.24.361,9.763,9.763,0,0,1-6.958.206,5.4,5.4,0,0,1-3.6-4.8A9.78,9.78,0,0,1,96.2,34.2a8.929,8.929,0,0,1,7.758-3.042,9.8,9.8,0,0,1,3.042.716c.315.127.358.252.222.556-.4.845-.78,1.7-1.131,2.564-.147.358-.292.471-.676.3a5.58,5.58,0,0,0-2.53-.446,4.126,4.126,0,0,0-3.779,2.342,6.352,6.352,0,0,0-.5,4.389,2.331,2.331,0,0,0,2.421,1.993A8.5,8.5,0,0,0,104.484,42.988Z" transform="translate(-30.97 -23.12)" fill="#e6e6e6"/>
      <path id="Path_123" data-name="Path 123" d="M133.166,47.049c.726-3.052,1.431-6.044,2.147-9.035.463-1.941.939-3.881,1.381-5.827.082-.358.227-.462.585-.454,1.159.021,2.326.025,3.482,0,.392,0,.417.131.34.447q-1.757,7.262-3.5,14.528c-.055.233-.118.358-.383.347C135.9,47.042,134.57,47.049,133.166,47.049Z" transform="translate(-42.512 -23.295)" fill="#e6e6e6"/>
      <path id="Path_124" data-name="Path 124" d="M74.522,31.744c-.641,2.671-1.267,5.289-1.895,7.906-.551,2.3-1.109,4.593-1.65,6.894-.086.374-.222.537-.648.521q-1.656-.056-3.317,0c-.447.013-.515-.107-.415-.519q1.4-5.8,2.777-11.6c.229-.961.465-1.922.7-2.884.038-.156.03-.324.279-.322C71.727,31.747,73.1,31.744,74.522,31.744Z" transform="translate(-22.922 -23.298)" fill="#e6e6e6"/>
      <path id="Path_125" data-name="Path 125" d="M74.6,26.979a2.217,2.217,0,0,1-2.233-3.126,3.042,3.042,0,0,1,3.1-1.993A2.2,2.2,0,0,1,77.4,25.11,3.027,3.027,0,0,1,74.6,26.979Z" transform="translate(-24.58 -20.389)" fill="#e6e6e6"/>
      <path id="Path_126" data-name="Path 126" d="M138.937,24.8a3,3,0,0,1,3.7-2.875,2.047,2.047,0,0,1,1.685,2.135,3.012,3.012,0,0,1-3.9,2.788A1.941,1.941,0,0,1,138.937,24.8Z" transform="translate(-44.21 -20.385)" fill="#e6e6e6"/>
      <path id="Path_127" data-name="Path 127" d="M23.238,42.119a9.574,9.574,0,0,1-2.124-.3c-.242-.052-.358-.123-.292-.4.2-.875.379-1.753.573-2.63.034-.161.066-.3.32-.254a8.322,8.322,0,0,1,2.671.823,1.485,1.485,0,0,1,.895,1.61,1.47,1.47,0,0,1-1.542,1.154C23.569,42.128,23.4,42.119,23.238,42.119Z" transform="translate(-9.465 -25.294)" fill="#e6e6e6"/>
      <path id="Path_128" data-name="Path 128" d="M24.177,35.409a2.8,2.8,0,0,1-1.748-.317c-.419-.374.122-1.05.145-1.61a1.431,1.431,0,0,1,.063-.267c.25-1.116.25-1.113,1.4-.816a4.514,4.514,0,0,1,1.276.5,1.322,1.322,0,0,1,.682,1.532,1.342,1.342,0,0,1-1.265.97,5.143,5.143,0,0,1-.551.007Z" transform="translate(-9.896 -23.441)" fill="#e6e6e6"/>
    </g>
  </g>
</svg>
