<svg xmlns="http://www.w3.org/2000/svg" xmlns:xlink="http://www.w3.org/1999/xlink" width="172.235" height="60" viewBox="0 0 172.235 60">
  <defs>
    <clipPath id="clip-path">
      <rect id="Rectangle_36" data-name="Rectangle 36" width="172.235" height="60" transform="translate(838 2751)" fill="#e6e6e6"/>
    </clipPath>
  </defs>
  <g id="Mask_Group_18" data-name="Mask Group 18" transform="translate(-838 -2751)" clip-path="url(#clip-path)">
    <g id="EOS_logo" data-name="EOS logo" transform="translate(838 2756.606)">
      <path id="Path_109" data-name="Path 109" d="M121.678,27.192h4.584q2.313,0,4.6.068t4.466.209l-.138,2.36H122.188a3.109,3.109,0,0,0-2.337.834,3.388,3.388,0,0,0-.809,2.453V53.294a3.472,3.472,0,0,0,.809,2.476,3.055,3.055,0,0,0,2.337.855h13.007l.138,2.315q-2.177.138-4.466.186t-4.6.07q-2.317.02-4.584.023a5.743,5.743,0,0,1-4.1-1.458,4.983,4.983,0,0,1-1.549-3.82V32.468a4.984,4.984,0,0,1,1.549-3.841A5.787,5.787,0,0,1,121.678,27.192Zm-4.859,13.794h16.523v2.453H116.819Z" transform="translate(-61.37 -17.468)" fill="#e6e6e6"/>
      <path id="Path_110" data-name="Path 110" d="M193.041,26.4a17.113,17.113,0,0,1,5.786.855,8.06,8.06,0,0,1,3.8,2.777,12.748,12.748,0,0,1,2.081,5.115,39.855,39.855,0,0,1,.648,7.824A40.073,40.073,0,0,1,204.7,50.8a12.706,12.706,0,0,1-2.081,5.115,8.044,8.044,0,0,1-3.8,2.777,19.96,19.96,0,0,1-11.572,0,8.04,8.04,0,0,1-3.8-2.777,12.887,12.887,0,0,1-2.106-5.115,39.153,39.153,0,0,1-.68-7.822,38.268,38.268,0,0,1,.68-7.824,13.086,13.086,0,0,1,2.106-5.115,8.055,8.055,0,0,1,3.8-2.773A17.142,17.142,0,0,1,193.041,26.4Zm0,2.721a9.819,9.819,0,0,0-5.441,1.32,7.218,7.218,0,0,0-2.848,4.328,32,32,0,0,0-.832,8.194,31.977,31.977,0,0,0,.832,8.191,7.218,7.218,0,0,0,2.848,4.328,9.819,9.819,0,0,0,5.441,1.32,9.693,9.693,0,0,0,5.414-1.32,7.352,7.352,0,0,0,2.848-4.328,31.072,31.072,0,0,0,.857-8.191,31.1,31.1,0,0,0-.857-8.194,7.379,7.379,0,0,0-2.836-4.319,9.658,9.658,0,0,0-5.425-1.32Z" transform="translate(-80.381 -17.237)" fill="#e6e6e6"/>
      <path id="Path_111" data-name="Path 111" d="M263.5,26.469q2.267.048,4.582.227a44.915,44.915,0,0,1,4.63.6l-.227,2.222q-2.04-.138-4.351-.227t-4.491-.093q-1.9,0-3.263.138a5.586,5.586,0,0,0-2.245.648,2.916,2.916,0,0,0-1.274,1.666,10.508,10.508,0,0,0-.392,3.24,6.647,6.647,0,0,0,1.018,4.19,5.633,5.633,0,0,0,3.378,1.689l6.713,1.388q3.612.741,5.022,2.825a10.529,10.529,0,0,1,1.412,5.924,12.893,12.893,0,0,1-.648,4.514,5.346,5.346,0,0,1-1.92,2.569,7.9,7.9,0,0,1-3.217,1.2,28.34,28.34,0,0,1-4.584.324q-1.666,0-4.12-.138a54.893,54.893,0,0,1-5.6-.648l.227-2.222q2.36.1,3.959.163t2.893.093q1.295.025,2.721.023a19.14,19.14,0,0,0,4.26-.453,3.334,3.334,0,0,0,2.245-1.666,8.222,8.222,0,0,0,.68-3.8,9.659,9.659,0,0,0-.44-3.263,3.51,3.51,0,0,0-1.435-1.814,7.181,7.181,0,0,0-2.569-.907l-6.8-1.435a7.22,7.22,0,0,1-4.838-2.8,10.31,10.31,0,0,1-1.406-5.8,13.3,13.3,0,0,1,.626-4.514,5.072,5.072,0,0,1,1.852-2.523,7.2,7.2,0,0,1,3.124-1.088,34.64,34.64,0,0,1,4.48-.254Z" transform="translate(-101.777 -17.255)" fill="#e6e6e6"/>
      <path id="Path_112" data-name="Path 112" d="M55.374,62.2h0a1.644,1.644,0,0,1-.5-.084h.011a1.487,1.487,0,0,1-.295-.145h0L39.317,52.811a1.487,1.487,0,0,1-.723-1.274,1.424,1.424,0,0,1,.048-.37h0L44,29.024a1.335,1.335,0,0,1,.227-.492h0L54.2,14.022a1.562,1.562,0,0,1,2.469,0h0l9.964,14.51a1.335,1.335,0,0,1,.227.478h0l5.351,22.162a1.51,1.51,0,0,1,.043.36,1.485,1.485,0,0,1-.714,1.27h0l-15.39,9.184a1.345,1.345,0,0,1-.27.127h0a1.4,1.4,0,0,1-.5.091Zm9.547-28.02L57.945,57.434l11.021-6.616ZM41.8,50.818l11.021,6.616L45.849,34.177Zm5.6-21.684,7.972,26.386,7.974-26.386L55.374,17.515Z" transform="translate(-38.594 -13.417)" fill="#e6e6e6"/>
    </g>
  </g>
</svg>
