<svg xmlns="http://www.w3.org/2000/svg" xmlns:xlink="http://www.w3.org/1999/xlink" width="172.235" height="60" viewBox="0 0 172.235 60">
  <defs>
    <clipPath id="clip-path">
      <rect id="Rectangle_29" data-name="Rectangle 29" width="172.235" height="60" transform="translate(290 2636)" fill="#e6e6e6"/>
    </clipPath>
  </defs>
  <g id="Mask_Group_11" data-name="Mask Group 11" transform="translate(-290 -2636)" clip-path="url(#clip-path)">
    <g id="Bitcoin_logo" data-name="Bitcoin logo" transform="translate(290 2648.011)">
      <path id="Path_56" data-name="Path 56" d="M50.879,36.286,49.9,40.225c1.113.276,4.547,1.41,5.1-.819h0C55.581,37.082,51.994,36.572,50.879,36.286Z" transform="translate(-32.984 -24.011)" fill="#e6e6e6"/>
      <path id="Path_57" data-name="Path 57" d="M48.744,44.681,47.66,49.025c1.337.332,5.462,1.656,6.072-.794C54.369,45.677,50.081,45.015,48.744,44.681Z" transform="translate(-32.327 -26.48)" fill="#e6e6e6"/>
      <path id="Path_58" data-name="Path 58" d="M48.27,19.447a17.979,17.979,0,1,0,13.1,21.8h0a17.979,17.979,0,0,0-13.1-21.8Zm3.582,14.884a3.15,3.15,0,0,1-2.519,2.9c1.769.921,2.669,2.335,1.813,4.785-1.065,3.041-3.595,3.3-6.96,2.663l-.817,3.271L41.4,47.456l.806-3.229c-.512-.127-1.034-.261-1.573-.418l-.808,3.244-1.97-.493.817-3.277c-.462-.119-.929-.244-1.408-.363l-2.567-.639.98-2.256s1.462.386,1.433.357a.719.719,0,0,0,.906-.468L39.3,34.74l.209.052a1.463,1.463,0,0,0-.209-.065l.925-3.684a1.054,1.054,0,0,0-.921-1.149c.031-.019-1.433-.355-1.433-.355l.526-2.107,2.715.679h0c.418.1.835.209,1.253.3l.806-3.24,1.974.491-.794,3.177q.794.18,1.581.372l.787-3.156,1.972.491-.8,3.248C50.388,30.651,52.21,31.937,51.852,34.331Z" transform="translate(-25.938 -18.9)" fill="#e6e6e6"/>
      <path id="Path_59" data-name="Path 59" d="M93.987,29.786a8.6,8.6,0,0,1,3.776.773,7.6,7.6,0,0,1,2.646,2.089,8.8,8.8,0,0,1,1.546,3.1,14.105,14.105,0,0,1,.5,3.822,15.573,15.573,0,0,1-4.321,10.811A14.892,14.892,0,0,1,93.4,53.65a14.45,14.45,0,0,1-5.913,1.207c-.274,0-.756,0-1.437-.023a20.937,20.937,0,0,1-2.339-.209,27.765,27.765,0,0,1-2.8-.551,14.023,14.023,0,0,1-2.8-1l7.874-33.087L93.033,18.9l-2.82,11.741a10.985,10.985,0,0,1,1.819-.627,8.1,8.1,0,0,1,1.955-.223ZM88.072,49.268a6.2,6.2,0,0,0,3-.773,7.912,7.912,0,0,0,2.437-2.072,10.416,10.416,0,0,0,1.615-2.937,10.026,10.026,0,0,0,.593-3.415,6.711,6.711,0,0,0-.729-3.413,2.864,2.864,0,0,0-2.69-1.232,8.355,8.355,0,0,0-1.656.23,4.146,4.146,0,0,0-1.846.959l-3,12.467c.182.033.343.063.478.092a3.4,3.4,0,0,0,.428.067,4.629,4.629,0,0,0,.549.027Zm21.691,4.956h-6.736l5.688-23.936H115.5Zm3.277-26.854a4.177,4.177,0,0,1-2.548-.835,2.976,2.976,0,0,1-1.14-2.573,4.261,4.261,0,0,1,.384-1.794,4.8,4.8,0,0,1,1.028-1.462,5.032,5.032,0,0,1,1.477-.98,4.526,4.526,0,0,1,1.8-.357,4.177,4.177,0,0,1,2.548.835,2.988,2.988,0,0,1,1.136,2.571,4.259,4.259,0,0,1-.388,1.8,4.731,4.731,0,0,1-1.021,1.462,4.967,4.967,0,0,1-1.479.978,4.417,4.417,0,0,1-1.8.361Zm8.355-3.047,7.056-1.086-1.734,7.056h7.557l-1.36,5.552h-7.509l-2,8.371a9.491,9.491,0,0,0-.317,1.957,3.551,3.551,0,0,0,.226,1.577,1.968,1.968,0,0,0,.978,1.021,4.475,4.475,0,0,0,2.024.368,10.717,10.717,0,0,0,2.12-.209,14.777,14.777,0,0,0,2.068-.568l.5,5.19a24.7,24.7,0,0,1-2.958.863,17.1,17.1,0,0,1-3.774.357,10.487,10.487,0,0,1-4.871-.927,5.41,5.41,0,0,1-2.465-2.544,8.121,8.121,0,0,1-.627-3.707,23.857,23.857,0,0,1,.627-4.415l4.464-18.84Zm12.582,20.344a16.828,16.828,0,0,1,1-5.827,14.356,14.356,0,0,1,2.872-4.775,13.468,13.468,0,0,1,4.532-3.233,14.462,14.462,0,0,1,5.936-1.184,15.684,15.684,0,0,1,3.664.388,14.8,14.8,0,0,1,2.939,1.023L152.6,36.345q-.932-.372-1.89-.66a8.2,8.2,0,0,0-2.387-.3,6.678,6.678,0,0,0-5.349,2.321,9.277,9.277,0,0,0-1.988,6.237,6.435,6.435,0,0,0,1,3.76c.666.957,1.9,1.433,3.684,1.433a11.841,11.841,0,0,0,2.55-.272,12.477,12.477,0,0,0,2.185-.683l.51,5.416a24.667,24.667,0,0,1-2.82.89,15.68,15.68,0,0,1-3.689.384,12.387,12.387,0,0,1-4.779-.819,9.061,9.061,0,0,1-3.229-2.208,8.283,8.283,0,0,1-1.844-3.26,13.389,13.389,0,0,1-.572-3.912ZM163.9,54.859a11.02,11.02,0,0,1-4.177-.731,7.741,7.741,0,0,1-2.935-2.047,8.866,8.866,0,0,1-1.752-3.116A12.611,12.611,0,0,1,154.449,45a17.578,17.578,0,0,1,.884-5.464,15.523,15.523,0,0,1,2.619-4.915,13.994,13.994,0,0,1,4.225-3.578,11.651,11.651,0,0,1,5.731-1.387,11.089,11.089,0,0,1,4.177.729,7.791,7.791,0,0,1,2.943,2.047,8.886,8.886,0,0,1,1.748,3.118,12.594,12.594,0,0,1,.591,3.981,18.172,18.172,0,0,1-.861,5.464,15.782,15.782,0,0,1-2.55,4.913,13.342,13.342,0,0,1-4.209,3.572,11.924,11.924,0,0,1-5.848,1.389Zm3.367-19.477a4.261,4.261,0,0,0-2.638.861,7.478,7.478,0,0,0-1.909,2.187,10.844,10.844,0,0,0-1.163,2.891,12.4,12.4,0,0,0-.384,2.978,7.2,7.2,0,0,0,.727,3.551,2.781,2.781,0,0,0,2.64,1.272,4.238,4.238,0,0,0,2.64-.867,7.444,7.444,0,0,0,1.915-2.176,10.834,10.834,0,0,0,1.165-2.891,12.716,12.716,0,0,0,.382-2.976,7.2,7.2,0,0,0-.731-3.551,2.777,2.777,0,0,0-2.64-1.274Zm17.449,18.842h-6.742l5.69-23.936h6.784Zm3.273-26.854a4.159,4.159,0,0,1-2.546-.835,2.983,2.983,0,0,1-1.143-2.573,4.263,4.263,0,0,1,.389-1.794,4.727,4.727,0,0,1,1.026-1.462,5.013,5.013,0,0,1,1.479-.98,4.5,4.5,0,0,1,1.794-.363,4.177,4.177,0,0,1,2.55.835,3,3,0,0,1,1.14,2.571,4.319,4.319,0,0,1-.391,1.8,4.725,4.725,0,0,1-1.019,1.462,5.012,5.012,0,0,1-1.479.978,4.43,4.43,0,0,1-1.8.361Zm7.31,4.006c.512-.15,1.084-.33,1.7-.526q1.034-.32,2.089-.541a24.621,24.621,0,0,1,2.592-.418,29.069,29.069,0,0,1,3.25-.163q5.328,0,7.354,3.1T213,41.291L209.91,54.224h-6.782l3-12.653c.184-.79.326-1.554.434-2.3a5.476,5.476,0,0,0-.025-1.957,2.335,2.335,0,0,0-.835-1.366,3.243,3.243,0,0,0-2.026-.522A13.642,13.642,0,0,0,201,35.7l-4.42,18.52h-6.782L195.3,31.38Z" transform="translate(-41.281 -18.896)" fill="#e6e6e6"/>
    </g>
  </g>
</svg>
