<svg xmlns="http://www.w3.org/2000/svg" xmlns:xlink="http://www.w3.org/1999/xlink" width="172.235" height="60" viewBox="0 0 172.235 60">
  <defs>
    <clipPath id="clip-path">
      <rect id="Rectangle_33" data-name="Rectangle 33" width="172.235" height="60" transform="translate(1386 2636)" fill="#e6e6e6"/>
    </clipPath>
  </defs>
  <g id="Mask_Group_15" data-name="Mask Group 15" transform="translate(-1386 -2636)" clip-path="url(#clip-path)">
    <g id="Doge_coin_logo" data-name="Doge coin logo" transform="translate(1386 2646.952)">
      <path id="Path_80" data-name="Path 80" d="M266.066,42.546c-.526,1.531-.792,3.129-1.188,4.686-.411,1.623-.809,3.25-1.169,4.886-.1.458-.29.6-.745.592-1.161-.026-2.326-.023-3.489,0-.471,0-.592-.1-.473-.594.711-2.92,1.393-5.849,2.07-8.775a6.473,6.473,0,0,0,.228-1.83,1.692,1.692,0,0,0-1.768-1.787c-1.981-.111-2.083-.028-2.539,1.887-.833,3.5-1.685,6.992-2.5,10.5-.1.441-.262.618-.731.607-1.163-.03-2.326-.023-3.489,0-.452,0-.62-.083-.5-.586,1.2-4.9,2.379-9.817,3.57-14.724.055-.228.081-.469.386-.569a17.2,17.2,0,0,1,8.251-.875,4.438,4.438,0,0,1,3.951,3.759c.013.06.087.1.134.155Z" transform="translate(-93.83 -23.423)" fill="#e6e6e6"/>
      <path id="Path_81" data-name="Path 81" d="M155.4,50.961a6.539,6.539,0,0,1-3.621.575,5.139,5.139,0,0,1-4.686-5.24c-.3-5.64,3.135-9.723,8.775-10.46a14.034,14.034,0,0,1,7.059.9c.392.153.6.315.483.807-1.135,4.645-2.245,9.3-3.37,13.945a13.6,13.6,0,0,1-.426,1.338,7.975,7.975,0,0,1-7.178,5.666,13.877,13.877,0,0,1-6.929-.852c-.571-.241-.679-.454-.392-1.012a19.23,19.23,0,0,0,.978-2.315c.2-.541.39-.7.995-.426a8.811,8.811,0,0,0,5.365.652,3.678,3.678,0,0,0,2.946-3.574Zm-3.672-5.721c.045.784.045,1.808,1.065,2.322a3.441,3.441,0,0,0,3.263-.275,1,1,0,0,0,.515-.688c.5-2.087,1-4.175,1.512-6.256.124-.5-.047-.626-.532-.669C154.19,39.372,151.752,41.6,151.728,45.24Z" transform="translate(-63.015 -23.406)" fill="#e6e6e6"/>
      <path id="Path_82" data-name="Path 82" d="M98.548,43.262a10.186,10.186,0,0,1,8.17-10.243,7.855,7.855,0,0,1,3.318-.07c.618.141.8-.094.92-.639.426-1.9.918-3.787,1.338-5.687.1-.462.285-.671.745-.735q1.917-.262,3.813-.586c.581-.1.4.243.339.518q-.882,3.691-1.781,7.389c-.752,3.116-1.512,6.23-2.249,9.35a11.378,11.378,0,0,0,.279,6.066c.177.569.072.728-.513.777a23.558,23.558,0,0,0-2.641.388c-.607.124-1.02,0-1.167-.626-.177-.773-.5-.639-1.035-.275a6.284,6.284,0,0,1-7.421-.077c-1.548-1.278-1.955-3.08-2.113-4.965C98.533,43.658,98.548,43.458,98.548,43.262Zm10.064-6.581c-4.626-.117-6.358,5.751-4.924,8.486a2,2,0,0,0,2.17.939,3.061,3.061,0,0,0,2.307-1.3c.038-.051.021-.143.03-.213a54.988,54.988,0,0,1,1.455-6.933c.213-.9.192-.924-.739-.976C108.81,36.676,108.712,36.683,108.612,36.681Z" transform="translate(-49.362 -20.338)" fill="#e6e6e6"/>
      <path id="Path_83" data-name="Path 83" d="M221.168,53.1c-4.2,0-6.59-2.226-6.752-6.324a10.827,10.827,0,0,1,3.727-8.99,8.243,8.243,0,0,1,7.487-1.866c2.556.541,4.151,2.322,4.5,5.24A10.818,10.818,0,0,1,226.4,51.2a7.58,7.58,0,0,1-5.231,1.9Zm-2.1-7.472a7.978,7.978,0,0,0,.177,1.876,2.059,2.059,0,0,0,2.494,1.646,3.622,3.622,0,0,0,2.59-1.8,7.938,7.938,0,0,0,1.182-5.51,2.18,2.18,0,0,0-2.888-2.106,3,3,0,0,0-1.534.852,7.1,7.1,0,0,0-2.021,5.033Z" transform="translate(-83.439 -23.399)" fill="#e6e6e6"/>
      <path id="Path_84" data-name="Path 84" d="M129.958,53.085c-3.834,0-6.164-1.938-6.483-5.847a10.527,10.527,0,0,1,4.85-10.309,7.968,7.968,0,0,1,6.848-.884,5.4,5.4,0,0,1,3.734,3.891,11.237,11.237,0,0,1-3.938,11.578A7.984,7.984,0,0,1,129.958,53.085ZM134.593,43c-.019-.334-.026-.679-.058-1.022a2.35,2.35,0,0,0-3.738-1.945,3.655,3.655,0,0,0-1.065.905,7.6,7.6,0,0,0-1.506,6.39,2.044,2.044,0,0,0,2.731,1.751,3.1,3.1,0,0,0,1.668-.895,7.33,7.33,0,0,0,1.968-5.193Z" transform="translate(-56.681 -23.387)" fill="#e6e6e6"/>
      <path id="Path_85" data-name="Path 85" d="M178.937,53.077a8.6,8.6,0,0,1-3.593-.53,5.9,5.9,0,0,1-3.672-5.146c-.59-4.709,2.239-10.209,7.7-11.472a7.736,7.736,0,0,1,3.821-.021,4.288,4.288,0,0,1,3.372,3.284,5.227,5.227,0,0,1-1.717,5.357,9.4,9.4,0,0,1-4.888,1.968,19.829,19.829,0,0,1-3.176.271c-.471,0-.535.179-.426.577a2.47,2.47,0,0,0,2.507,1.817,10.918,10.918,0,0,0,4.1-.486c.492-.162.609-.019.639.426.055.863.1,1.725.213,2.579.062.426-.111.562-.464.671a13.974,13.974,0,0,1-4.424.705Zm-1.421-9.54c.328-.038.927-.075,1.506-.187a6.356,6.356,0,0,0,2.7-.98,1.836,1.836,0,0,0,.639-2.049,1.493,1.493,0,0,0-1.619-.914,4.481,4.481,0,0,0-4.136,3.267c-.313.909-.313.909.914.863Z" transform="translate(-70.848 -23.395)" fill="#e6e6e6"/>
      <path id="Path_86" data-name="Path 86" d="M201.541,53.1a9.033,9.033,0,0,1-3-.445,5.859,5.859,0,0,1-4.121-5.129c-.471-4.047.6-7.589,4.019-10.053,3.022-2.177,6.379-2.266,9.83-1.044.469.164.456.383.277.763-.407.871-.8,1.751-1.163,2.639-.153.375-.326.473-.714.3a5.991,5.991,0,0,0-3.491-.4,4.793,4.793,0,0,0-3.938,4.426,8.544,8.544,0,0,0-.053,2.13c.256,1.974,1.195,2.85,3.195,2.843a7.687,7.687,0,0,0,2.769-.481c.4-.153.541-.032.573.351.075.933.136,1.87.241,2.8.045.409-.192.518-.49.6a20.978,20.978,0,0,1-2.077.545,16.6,16.6,0,0,1-1.859.151Z" transform="translate(-77.531 -23.383)" fill="#e6e6e6"/>
      <path id="Path_87" data-name="Path 87" d="M239.846,52.863c-.592,0-1.186-.019-1.781,0-.462.019-.592-.083-.469-.586.8-3.276,1.568-6.562,2.343-9.844.426-1.821.878-3.638,1.291-5.463.106-.473.266-.7.818-.669a32.348,32.348,0,0,0,3.34,0c.656-.034.662.224.541.724q-1.651,6.816-3.282,13.646c-.126.526-.3,1.048-.368,1.58s-.334.639-.8.611C240.937,52.848,240.391,52.863,239.846,52.863Z" transform="translate(-90.247 -23.577)" fill="#e6e6e6"/>
      <path id="Path_88" data-name="Path 88" d="M246.146,31.155a2.289,2.289,0,0,1-2.524-2.388,3.3,3.3,0,0,1,3.242-3.122,2.344,2.344,0,0,1,2.556,2.375,3.195,3.195,0,0,1-3.274,3.135Z" transform="translate(-92.032 -20.443)" fill="#e6e6e6"/>
      <path id="Path_89" data-name="Path 89" d="M47.918,18.276A19.048,19.048,0,1,0,66.966,37.324,19.048,19.048,0,0,0,47.918,18.276Zm.6,30.443H40.883V38.576h-2.69V36.089h2.69V25.948h6.562c1.553,0,11.806-.354,11.806,11.561C59.251,49.62,48.514,48.719,48.514,48.719Z" transform="translate(-28.87 -18.276)" fill="#e6e6e6"/>
      <path id="Path_90" data-name="Path 90" d="M54.974,35.059H51.992v5.964h4.771V43.5H51.992v5.964h3.161v-.03c.811,0,6.645.079,6.635-6.926S56.1,35.059,54.974,35.059Z" transform="translate(-35.671 -23.212)" fill="#e6e6e6"/>
    </g>
  </g>
</svg>
