<svg xmlns="http://www.w3.org/2000/svg" xmlns:xlink="http://www.w3.org/1999/xlink" width="172.235" height="60" viewBox="0 0 172.235 60">
  <defs>
    <clipPath id="clip-path">
      <rect id="Rectangle_38" data-name="Rectangle 38" width="172.235" height="60" transform="translate(290 2751)" fill="#e6e6e6"/>
    </clipPath>
    <clipPath id="clip-path-2">
      <rect id="Rectangle_39" data-name="Rectangle 39" width="172.235" height="41.217" fill="#e6e6e6"/>
    </clipPath>
  </defs>
  <g id="Mask_Group_16" data-name="Mask Group 16" transform="translate(-290 -2751)" clip-path="url(#clip-path)">
    <g id="Group_15" data-name="Group 15" transform="translate(290 2760.177)">
      <g id="Group_14" data-name="Group 14" clip-path="url(#clip-path-2)">
        <path id="Path_91" data-name="Path 91" d="M0,18.189A4.925,4.925,0,0,0,.745,16.8Q4.506,8.939,8.26,1.072C8.35.883,8.433.691,8.515.5A.74.74,0,0,1,9.277.01c.612.01,1.225,0,1.838,0q13.352,0,26.7-.013a1.066,1.066,0,0,1,1.133.7q4.091,8.689,8.232,17.355a.668.668,0,0,1-.154.9Q42,23.74,37,28.538,33.624,31.765,30.253,35q-3.24,3.107-6.476,6.219h-.23q-1.585-1.519-3.17-3.037-4.564-4.379-9.129-8.759-4.446-4.257-8.906-8.5A26.777,26.777,0,0,0,0,18.762ZM23.717,5.616c-3.559,0-7.119.007-10.678-.008-.46,0-.632.1-.62.606.035,1.462.023,2.926-.008,4.388-.01.476.135.593.608.588,2.359-.025,4.718.007,7.077-.02.492-.006.612.136.59.6-.037.819-.028,1.642,0,2.462.012.386-.091.509-.5.531a37.911,37.911,0,0,0-7.7,1.046,8.89,8.89,0,0,0-2.856,1.14c-.91.626-.931,1.362-.046,2.014a6.02,6.02,0,0,0,1.753.826,34.756,34.756,0,0,0,8.564,1.375c.78.049.781.035.781.843,0,3.4.007,6.8-.009,10.193,0,.414.084.556.53.548,1.607-.029,3.215-.034,4.822,0,.526.012.664-.132.66-.657-.024-3.436,0-6.872-.025-10.307,0-.5.122-.622.627-.642a39.073,39.073,0,0,0,5.965-.676,13.17,13.17,0,0,0,4.277-1.39c1.185-.7,1.153-1.611-.031-2.293a10.165,10.165,0,0,0-2.61-1,37.923,37.923,0,0,0-7.641-1.047c-.436-.02-.606-.144-.585-.6.036-.8.04-1.6,0-2.4-.026-.5.126-.651.639-.645,2.334.027,4.669-.007,7,.026.548.008.661-.167.65-.672q-.048-2.118,0-4.237c.011-.481-.133-.605-.609-.6-3.54.02-7.081.011-10.621.011" transform="translate(0 0)" fill="#e6e6e6"/>
        <path id="Path_92" data-name="Path 92" d="M1176.845,116.4c-2.373,0-4.745.012-7.118-.01-.46,0-.543.106-.421.54a4.549,4.549,0,0,0,3.2,3.23,8.655,8.655,0,0,0,6.92-.758c.326-.175.551-.658.931-.542.311.1.542.461.8.715.655.642,1.29,1.3,1.963,1.927.291.269.2.416-.039.629a10.34,10.34,0,0,1-4.076,2.244,13.656,13.656,0,0,1-8.184-.025,8.811,8.811,0,0,1-6.126-6.271,11.1,11.1,0,0,1,1.448-9.881,8.934,8.934,0,0,1,5.06-3.444,12.321,12.321,0,0,1,7.824.286,8.364,8.364,0,0,1,5.331,6.572,19.262,19.262,0,0,1,.231,4.387c-.007.4-.216.4-.511.4q-3.616-.009-7.233,0m-7.552-4.012c3.447,0,6.812,0,10.178.006.4,0,.329-.225.275-.444a3.626,3.626,0,0,0-1.428-2.271,6.349,6.349,0,0,0-6.38-.44,4.654,4.654,0,0,0-2.645,3.149" transform="translate(-1030.329 -92.267)" fill="#e6e6e6"/>
        <path id="Path_93" data-name="Path 93" d="M670.014,116.542c-2.372,0-4.745.008-7.117-.007-.418,0-.512.084-.4.512a4.9,4.9,0,0,0,4.278,3.523,8.308,8.308,0,0,0,6.5-1.521c.2-.151.29-.087.425.047.882.873,1.758,1.754,2.658,2.609.315.3.05.425-.116.576a10.45,10.45,0,0,1-4.851,2.441,13.155,13.155,0,0,1-8.415-.634,8.972,8.972,0,0,1-5.316-6.718,11.359,11.359,0,0,1,.747-7.485,9.366,9.366,0,0,1,7.682-5.339,12.226,12.226,0,0,1,6.09.628,8.3,8.3,0,0,1,5.285,6.209,17.135,17.135,0,0,1,.336,4.659c-.012.389-.157.513-.553.51-2.411-.017-4.821-.009-7.232-.009m-2.287-4.012c1.606,0,3.212-.012,4.817.008.407.005.506-.112.39-.49a4.279,4.279,0,0,0-1.031-1.881,5.476,5.476,0,0,0-4.505-1.374,5.137,5.137,0,0,0-4.765,3.262c-.161.39-.086.488.333.483,1.587-.019,3.173-.008,4.76-.008" transform="translate(-581.784 -92.411)" fill="#e6e6e6"/>
        <path id="Path_94" data-name="Path 94" d="M984.82,49.154a7.736,7.736,0,0,1,2.866-2.263c2.489-1.08,6.826-.864,9.012,1.588a9.28,9.28,0,0,1,2.124,4.969,18.763,18.763,0,0,1,.144,2.855c0,3.055-.018,6.11.016,9.165.006.576-.165.687-.7.669-1.2-.042-2.412-.034-3.617,0-.447.012-.572-.107-.569-.561q.031-4.926.006-9.852a5.773,5.773,0,0,0-.708-2.97,3.964,3.964,0,0,0-4.108-1.923,4.962,4.962,0,0,0-4.461,5.262q-.027,4.726.008,9.451c0,.473-.107.61-.591.6-1.243-.037-2.489-.031-3.732,0-.425.01-.543-.1-.541-.532.019-3.819.011-7.637.011-11.456,0-5.06.007-10.12-.011-15.18,0-.474.113-.612.6-.6,1.243.036,2.489.032,3.732,0,.433-.011.538.11.536.537-.019,3.189-.01,6.377-.01,9.566Z" transform="translate(-867.314 -33.957)" fill="#e6e6e6"/>
        <path id="Path_95" data-name="Path 95" d="M522.593,78.727c0-1.732-.013-3.125.008-4.518.006-.387-.084-.534-.5-.519-.9.031-1.8-.005-2.7.017-.348.009-.466-.086-.459-.446q.032-1.66,0-3.321c-.006-.355.114-.464.462-.454.784.021,1.569.007,2.353.006.833,0,.833,0,.833-.859,0-1.221.014-2.443-.009-3.664-.007-.362.1-.5.465-.529,1.388-.127,2.776-.269,4.16-.438.367-.045.307.157.307.359,0,1.546.015,3.092-.009,4.638-.006.409.122.508.516.5,1.473-.022,2.947,0,4.42-.016.371,0,.492.094.482.478-.027,1.087-.024,2.176,0,3.263.008.366-.087.487-.472.482-1.511-.022-3.023,0-4.535-.013-.286,0-.458.026-.457.389.014,2.691-.042,5.383.026,8.073.055,2.184,1.476,3.152,3.616,2.588a2.394,2.394,0,0,0,.651-.21c.484-.3.67-.1.813.369.319,1.057.677,2.1,1.02,3.152.072.22.157.4-.18.521a10.649,10.649,0,0,1-6.422.383,5.907,5.907,0,0,1-4.3-5.367c-.186-1.734-.032-3.47-.095-4.865" transform="translate(-459.288 -56.638)" fill="#e6e6e6"/>
        <path id="Path_96" data-name="Path 96" d="M844.6,76.532c0,1.355-.057,2.712.014,4.063a2.436,2.436,0,0,0,3.216,2.425,6.589,6.589,0,0,0,1.249-.385c.277-.118.393-.111.488.194.362,1.162.744,2.317,1.119,3.474.063.193.105.361-.163.452a10.167,10.167,0,0,1-6.9.231,5.739,5.739,0,0,1-3.719-4.759,11.4,11.4,0,0,1-.17-2.106c0-2.577-.009-5.154.009-7.73,0-.417-.09-.568-.535-.55-.879.036-1.76,0-2.64.017-.325.007-.479-.047-.47-.429.026-1.106.02-2.214,0-3.321-.005-.322.087-.431.418-.422.822.021,1.646.011,2.468.006s.743.108.747-.717c.005-1.222.027-2.444-.011-3.664-.016-.5.12-.693.635-.733,1.276-.1,2.549-.237,3.819-.4.374-.048.46.039.456.4-.016,1.527.008,3.054-.017,4.581-.007.417.084.557.53.547,1.454-.031,2.909.008,4.363-.023.449-.01.537.136.525.547q-.043,1.545,0,3.092c.013.419-.087.552-.53.543-1.473-.03-2.947,0-4.42-.02-.4-.006-.524.1-.518.508.024,1.393.009,2.787.009,4.18h.027" transform="translate(-739.983 -55.021)" fill="#e6e6e6"/>
        <path id="Path_97" data-name="Path 97" d="M1369.7,107.767a6.942,6.942,0,0,1,1.887-1.84,7.711,7.711,0,0,1,5.84-.528,6.424,6.424,0,0,1,2.5,1.231.477.477,0,0,1,.159.714c-.619,1.137-1.206,2.293-1.781,3.453-.164.332-.286.356-.569.122a5.534,5.534,0,0,0-6.556.132,4.641,4.641,0,0,0-1.436,3.543q-.022,4.955.006,9.909c0,.495-.084.692-.642.672-1.281-.047-2.565-.025-3.847-.008-.323,0-.419-.085-.419-.413q.014-9.365,0-18.73c0-.354.1-.454.451-.448,1.206.021,2.412.025,3.618,0,.353-.008.472.133.517.436.082.556.174,1.111.275,1.758" transform="translate(-1207.941 -92.993)" fill="#e6e6e6"/>
        <path id="Path_98" data-name="Path 98" d="M103.135,137.13a47,47,0,0,1-10.579-1.041,6.811,6.811,0,0,1-2.077-.792c-.78-.491-.78-.955-.016-1.467a8.152,8.152,0,0,1,3.01-1.027,41.175,41.175,0,0,1,6.25-.737c.385-.019.508.073.5.458-.02,1.031.005,2.062-.013,3.093-.006.345.11.463.454.481a44.956,44.956,0,0,0,5.1.014c.406-.024.456-.179.45-.516-.017-1.031-.006-2.062-.006-3.093,0-.23-.042-.474.329-.448a31.742,31.742,0,0,1,8.668,1.4,3.922,3.922,0,0,1,.764.382c.714.453.717,1,0,1.455a6.682,6.682,0,0,1-2.023.772,41.416,41.416,0,0,1-7.481.981q-1.662.091-3.325.084" transform="translate(-79.558 -116.873)" fill="#e6e6e6"/>
      </g>
    </g>
  </g>
</svg>
