<svg xmlns="http://www.w3.org/2000/svg" xmlns:xlink="http://www.w3.org/1999/xlink" width="172.235" height="60" viewBox="0 0 172.235 60">
  <defs>
    <clipPath id="clip-path">
      <rect id="Rectangle_37" data-name="Rectangle 37" width="172.235" height="60" transform="translate(564 2751)" fill="#e6e6e6"/>
    </clipPath>
  </defs>
  <g id="Mask_Group_17" data-name="Mask Group 17" transform="translate(-564 -2751)" clip-path="url(#clip-path)">
    <g id="Tron_logo" data-name="Tron logo" transform="translate(564 2755.179)">
      <path id="Path_99" data-name="Path 99" d="M47.71,14.1a6.168,6.168,0,0,0,1.437.316c1.262.256,2.529.479,3.794.719,1.2.22,2.409.429,3.612.651,1.5.275,2.991.56,4.488.836,1.2.223,2.4.431,3.609.654,1.5.275,2.989.56,4.486.833,1.708.311,3.418.606,5.123.917s3.408.647,5.111.958c1.811.333,3.624.651,5.434.98.513.091,1.023.211,1.54.275.412.05.613.376.867.613,1.248,1.159,2.464,2.347,3.7,3.523q2.711,2.587,5.432,5.166c.4.376.417.376.074.8-1.059,1.3-2.129,2.582-3.19,3.875-.932,1.133-1.859,2.275-2.79,3.411s-1.9,2.3-2.845,3.449-1.859,2.275-2.79,3.411c-.75.912-1.5,1.82-2.254,2.73L80.1,51.194q-1.415,1.729-2.838,3.458l-2.8,3.4q-1.437,1.744-2.857,3.482L68.8,64.98c-.2.24-.412.479-.644.759-.371-.934-.719-1.839-1.092-2.745Q63.532,54.109,60,45.233q-6.11-15.354-12.215-30.707c-.055-.139-.091-.285-.134-.429ZM75.828,33a.445.445,0,0,0,.285,0q1.3-.234,2.608-.479L89.278,30.6l2.658-.479c-.06-.067-.084-.1-.113-.127-1.844-1.751-3.7-3.5-5.528-5.269-.24-.225-.35-.216-.589-.017Q80.948,28.7,76.17,32.666c-.12.1-.278.165-.335.331l-.05.022s.019.017.029.017S75.849,33.023,75.828,33ZM53.118,20.306l-.06.043L68.039,58.034a5.5,5.5,0,0,0,.172-.958l.958-7.8q.434-3.593.865-7.185.4-3.37.824-6.737a.534.534,0,0,0-.225-.544q-8.478-7.025-16.954-14.054c-.184-.153-.374-.3-.56-.455ZM91.5,33.018a1.333,1.333,0,0,0-.175,0l-4.359.79q-6.538,1.186-13.079,2.361c-.307.055-.419.156-.453.479-.206,1.875-.438,3.746-.666,5.619q-.374,3.128-.757,6.261-.369,3.073-.752,6.153c-.137,1.128-.271,2.256-.417,3.478C77.758,49.745,84.613,41.4,91.5,33.016ZM55.111,18.277l-.024.077L56.5,19.527Q64.186,25.9,71.866,32.271c.228.189.34.134.527-.022Q76.4,28.9,80.421,25.558L83,23.4Z" transform="translate(-47.65 -14.098)" fill="#e6e6e6"/>
      <path id="Path_100" data-name="Path 100" d="M281.872,59.591c-.144,0-.216-.117-.287-.2-.508-.589-1.047-1.15-1.554-1.736-.24-.29-.517-.568-.774-.85-.522-.577-1.056-1.142-1.552-1.739-.216-.261-.455-.508-.687-.759-.556-.6-1.109-1.2-1.638-1.83-.206-.24-.436-.479-.647-.719-.7-.793-1.437-1.554-2.139-2.335-.572-.627-1.152-1.253-1.705-1.9-.639-.752-1.317-1.471-1.971-2.213-.457-.517-.934-1.023-1.4-1.538-.7-.776-1.4-1.55-2.086-2.328-.443-.5-.9-1-1.351-1.492-.522-.575-1.054-1.14-1.552-1.736-.24-.275-.493-.532-.738-.8a2.307,2.307,0,0,1-.445-.534.532.532,0,0,0-.048.345V57.361c0,.419,0,.419-.434.419h-2.2c-.218,0-.261-.067-.261-.273V29.21c.479.529.922,1.008,1.358,1.49.668.742,1.329,1.49,2,2.235q1.959,2.184,3.923,4.366c.826.92,1.66,1.832,2.488,2.752,1.1,1.221,2.189,2.45,3.288,3.672.639.719,1.289,1.413,1.928,2.124,1.107,1.229,2.206,2.464,3.312,3.693.719.786,1.437,1.564,2.211,2.421V31.4c0-.287.062-.378.366-.371.862.022,1.727,0,2.589,0Z" transform="translate(-109.637 -18.542)" fill="#e6e6e6"/>
      <path id="Path_101" data-name="Path 101" d="M195.966,58.551h-3.114c-.192,0-.261-.1-.335-.24q-.618-1.186-1.245-2.369c-.611-1.159-1.219-2.321-1.835-3.48-.7-1.317-1.4-2.635-2.088-3.952a.5.5,0,0,0-.517-.311q-3,.019-5.988,0c-.254,0-.323.065-.323.323V58.2c0,.287-.069.357-.352.35-.754-.022-1.511-.014-2.268,0-.192,0-.254-.041-.254-.24V45.558c0-.266.117-.261.309-.261h9.719a5.232,5.232,0,0,0,4.007-1.844,4.821,4.821,0,0,0,1.2-2.555,5.317,5.317,0,0,0-4.448-6.114,6.946,6.946,0,0,0-1.049-.065H175.646c-.266,0-.333.057-.333.331V58.1c0,.467,0,.467-.479.467h-2.105c-.223,0-.292-.05-.29-.283V32.189c0-.295.048-.393.374-.39q7.451,0,14.9.014a7.932,7.932,0,0,1,6.071,2.687,7.817,7.817,0,0,1,2.019,4.345,8.272,8.272,0,0,1-5.269,8.862c-.192.072-.24.1-.129.3q1.962,3.664,3.9,7.336l1.564,2.958A.479.479,0,0,1,195.966,58.551Z" transform="translate(-84.353 -19.304)" fill="#e6e6e6"/>
      <path id="Path_102" data-name="Path 102" d="M226.008,58.539a13.351,13.351,0,0,1-13.144-11.776,13.373,13.373,0,0,1,13.814-14.957,13.371,13.371,0,1,1-.671,26.734Zm10.66-13.362a10.485,10.485,0,1,0-3.115,7.432,10.486,10.486,0,0,0,3.115-7.432Z" transform="translate(-96.217 -19.304)" fill="#e6e6e6"/>
      <path id="Path_103" data-name="Path 103" d="M142.64,31.8h11.4c.275,0,.335.072.328.335-.019.754-.012,1.511,0,2.266,0,.213-.036.295-.275.295h-22.93c-.223,0-.266-.072-.263-.275.012-.754.017-1.511,0-2.266,0-.271.046-.357.342-.354C135.041,31.8,138.851,31.8,142.64,31.8Z" transform="translate(-72.135 -19.304)" fill="#e6e6e6"/>
      <path id="Path_104" data-name="Path 104" d="M144.663,52.422v9.1c0,.271-.062.34-.333.333-.754-.019-1.511-.014-2.268,0-.208,0-.295-.029-.295-.273V43.328c0-.216.06-.271.268-.268.778,0,1.557.017,2.333,0,.261,0,.292.084.29.309Q144.658,47.9,144.663,52.422Z" transform="translate(-75.332 -22.616)" fill="#e6e6e6"/>
      <path id="Path_105" data-name="Path 105" d="M152.026,52.466v9.058c0,.266-.057.342-.331.335-.754-.022-1.511-.014-2.266,0-.223,0-.29-.043-.29-.278V43.334c0-.206.046-.275.263-.271.766,0,1.533.014,2.3,0,.24,0,.321.055.321.314Q152.019,47.92,152.026,52.466Z" transform="translate(-77.5 -22.617)" fill="#e6e6e6"/>
      <path id="Path_106" data-name="Path 106" d="M265.872,49.157c.939,1.042,1.856,2.065,2.778,3.08a.426.426,0,0,1,.1.321V63.4c0,.218-.067.268-.275.266-.8-.012-1.6,0-2.4,0-.153,0-.256,0-.256-.208v-14.2a.333.333,0,0,1,.046-.1Z" transform="translate(-111.82 -24.409)" fill="#e6e6e6"/>
      <path id="Path_107" data-name="Path 107" d="M87.55,40.875c.022.024.014.041-.014.046s-.019,0-.029-.017l.05-.022Z" transform="translate(-59.373 -21.973)" fill="#e6e6e6"/>
      <path id="Path_108" data-name="Path 108" d="M230.995,51.853a1.933,1.933,0,1,1,1.865-1.932A1.933,1.933,0,0,1,230.995,51.853Z" transform="translate(-101.027 -24.066)" fill="#e6e6e6"/>
    </g>
  </g>
</svg>
