<svg xmlns="http://www.w3.org/2000/svg" xmlns:xlink="http://www.w3.org/1999/xlink" width="172.235" height="60" viewBox="0 0 172.235 60">
  <defs>
    <clipPath id="clip-path">
      <rect id="Rectangle_32" data-name="Rectangle 32" width="172.235" height="60" transform="translate(1112 2636)" fill="#e6e6e6"/>
    </clipPath>
  </defs>
  <g id="Mask_Group_14" data-name="Mask Group 14" transform="translate(-1112 -2636)" clip-path="url(#clip-path)">
    <g id="Ripple_logo" data-name="Ripple logo" transform="translate(1112 2641.261)">
      <path id="Path_79" data-name="Path 79" d="M122.339,32.011a8.7,8.7,0,0,0-2.425-.322c-2.911,0-5.986,2.265-5.986,5.176V50.613h-6.621V26.185h6.3v2.427a9.357,9.357,0,0,1,7.116-2.911c.968,0,1.461.164,2.265.164l-.639,6.141Zm7.443-18.751a4.207,4.207,0,1,1-.164,8.411,4.225,4.225,0,0,1-4.37-4.214,4.463,4.463,0,0,1,4.534-4.2m3.23,37.362H126.38V26.194h6.632Zm19.406-24.908a11.8,11.8,0,0,0-7.118,2.427V26.189h-6.466V62.738h6.632v-13.9A10.6,10.6,0,0,0,152.1,51.1a12.1,12.1,0,0,0,9.214-4.205,12.9,12.9,0,0,0,3.075-8.568c0-7.116-5.338-12.618-11.97-12.618m-.8,19.406a6.443,6.443,0,0,1-6.79-6.787,6.441,6.441,0,0,1,6.79-6.79,6.533,6.533,0,0,1,6.3,6.79,6.532,6.532,0,0,1-6.3,6.787M197.7,14.71h6.621v35.9H197.7ZM231.02,46.727a13.731,13.731,0,0,1-10.027,4.37c-7.281,0-12.785-5.009-12.785-12.774,0-6.79,4.689-12.774,11.97-12.774,6.79,0,11.643,5.657,11.643,12.454a7.777,7.777,0,0,1-.164,1.943H214.525a6.416,6.416,0,0,0,6.632,5.822,9.224,9.224,0,0,0,6.15-2.74Zm-6.148-11.479a4.923,4.923,0,0,0-4.854-4.37,5.114,5.114,0,0,0-5.173,4.37Zm-43.019-9.543a11.787,11.787,0,0,0-7.116,2.427V26.189h-6.306V62.738h6.621v-13.9a10.6,10.6,0,0,0,6.634,2.262,12.1,12.1,0,0,0,9.214-4.205,12.9,12.9,0,0,0,3.075-8.568c-.164-7.116-5.5-12.618-12.134-12.618m-.8,19.406a6.442,6.442,0,0,1-6.787-6.787,6.44,6.44,0,0,1,6.787-6.79,6.534,6.534,0,0,1,6.306,6.79,6.533,6.533,0,0,1-6.306,6.787" transform="translate(-59.593 -13.26)" fill="#e6e6e6"/>
      <path id="SVGID" d="M65.267,18.493A8.828,8.828,0,0,0,60.9,26.1,9.908,9.908,0,0,0,62.356,30.8c.648,1.294.968,3.557-1.294,4.689a3.466,3.466,0,0,1-4.692-1.3,14.618,14.618,0,0,0-3.557-3.557,8.47,8.47,0,0,0-8.733,0,8.8,8.8,0,0,0,0,15.207,8.47,8.47,0,0,0,8.733,0A8.918,8.918,0,0,0,56.2,42.271a3.322,3.322,0,0,1,4.689-1.3,3.624,3.624,0,0,1,1.294,4.692,9.737,9.737,0,0,0-1.294,4.689,8.808,8.808,0,0,0,4.37,7.6,8.475,8.475,0,0,0,8.73,0,8.792,8.792,0,0,0,0-15.2,9.741,9.741,0,0,0-4.854-1.142,3.394,3.394,0,1,1,0-6.787,10.068,10.068,0,0,0,4.854-1.142,8.792,8.792,0,0,0,0-15.2,8.98,8.98,0,0,0-8.73-.018" transform="translate(-39.712 -14.46)" fill="#e6e6e6"/>
    </g>
  </g>
</svg>
