<svg xmlns="http://www.w3.org/2000/svg" xmlns:xlink="http://www.w3.org/1999/xlink" width="172.235" height="60" viewBox="0 0 172.235 60">
  <defs>
    <clipPath id="clip-path">
      <rect id="Rectangle_31" data-name="Rectangle 31" width="172.235" height="60" transform="translate(838 2636)" fill="#e6e6e6"/>
    </clipPath>
  </defs>
  <g id="Mask_Group_13" data-name="Mask Group 13" transform="translate(-838 -2636)" clip-path="url(#clip-path)">
    <g id="Litecoin_logo" data-name="Litecoin logo" transform="translate(838 2646.887)">
      <path id="Path_70" data-name="Path 70" d="M48.041,18.2A19.113,19.113,0,1,1,28.93,37.315,19.114,19.114,0,0,1,48.041,18.2M45.011,25.56,42.039,36.793l-2.048.793-.984,3.686,2.048-.773-1.7,6.426H57.632l1.255-4.769h-11l1.255-4.673,2.007-.754.984-3.686-2.009.773L52.3,25.553H45.011Z" transform="translate(-28.93 -18.202)" fill="#e6e6e6"/>
      <g id="Group_13" data-name="Group 13" transform="translate(46.513 6.906)">
        <path id="Path_71" data-name="Path 71" d="M94.823,51.863l5-23.878h4.9l-4.153,19.878h12.145l-.831,3.991Z" transform="translate(-94.823 -27.986)" fill="#e6e6e6"/>
        <path id="Path_72" data-name="Path 72" d="M127.083,34.565h4.666l-3.622,17.3h-4.666Zm1.368-6.58h4.675l-.88,4.234h-4.683Z" transform="translate(-103.246 -27.986)" fill="#e6e6e6"/>
        <path id="Path_73" data-name="Path 73" d="M138.252,38.278l.716-3.469h2.28l.571-2.77,5.359-3.224-1.255,5.994h2.851l-.72,3.469h-2.866l-1.515,7.245q-.4,1.973-.407,2.248a1.065,1.065,0,0,0,.343.84,1.909,1.909,0,0,0,1.238.3c.213,0,.722-.036,1.547-.113l-.733,3.469a12.511,12.511,0,0,1-2.476.245,5.514,5.514,0,0,1-3.6-.955,3.279,3.279,0,0,1-1.121-2.644,24.756,24.756,0,0,1,.6-3.68l1.449-6.955Z" transform="translate(-107.597 -28.23)" fill="#e6e6e6"/>
        <path id="Path_74" data-name="Path 74" d="M169.415,47.241H157.7c0,.185-.017.326-.017.426a3.922,3.922,0,0,0,.987,2.785,3.158,3.158,0,0,0,2.4,1.065,3.982,3.982,0,0,0,3.622-2.412l4.189.693a8.8,8.8,0,0,1-3.264,3.786,8.553,8.553,0,0,1-4.585,1.264,7.615,7.615,0,0,1-5.668-2.207,7.955,7.955,0,0,1-2.182-5.838,10.633,10.633,0,0,1,1.969-6.32,8.876,8.876,0,0,1,7.671-3.746,6.654,6.654,0,0,1,5.048,1.962,7.63,7.63,0,0,1,1.873,5.5,13.017,13.017,0,0,1-.324,3.045Zm-3.94-2.855c.011-.213.015-.362.015-.471a4.207,4.207,0,0,0-.863-2.883,2.953,2.953,0,0,0-2.312-.961,3.673,3.673,0,0,0-2.6,1.091,5.8,5.8,0,0,0-1.553,3.224Z" transform="translate(-111.986 -30.559)" fill="#e6e6e6"/>
        <path id="Path_75" data-name="Path 75" d="M190.611,47.921l4.534.733a9.551,9.551,0,0,1-3.322,4.609,8.523,8.523,0,0,1-5.1,1.581,7.021,7.021,0,0,1-5.244-1.971,7.364,7.364,0,0,1-1.93-5.419,12.423,12.423,0,0,1,1.174-5.327,8.994,8.994,0,0,1,3.535-3.95,9.746,9.746,0,0,1,5.178-1.44,7.156,7.156,0,0,1,4.886,1.6,6.064,6.064,0,0,1,2.054,4.2l-4.447.473a3.325,3.325,0,0,0-.889-2.131,2.649,2.649,0,0,0-1.9-.684,3.8,3.8,0,0,0-2.523,1,6.4,6.4,0,0,0-1.8,3.021,12.71,12.71,0,0,0-.626,3.771,3.4,3.4,0,0,0,.75,2.361,2.414,2.414,0,0,0,1.873.831,3.486,3.486,0,0,0,2.165-.814A5.2,5.2,0,0,0,190.611,47.921Z" transform="translate(-119.743 -30.559)" fill="#e6e6e6"/>
        <path id="Path_76" data-name="Path 76" d="M205.869,47.25a10.7,10.7,0,0,1,2.71-7.671,9.337,9.337,0,0,1,7.125-2.857,8.163,8.163,0,0,1,5.979,2.107,7.618,7.618,0,0,1,2.15,5.676,10.654,10.654,0,0,1-2.687,7.266,9.136,9.136,0,0,1-7.208,3.068,9.282,9.282,0,0,1-4.332-.978,6.392,6.392,0,0,1-2.819-2.77,8.248,8.248,0,0,1-.918-3.842Zm13.322-3.339a3.667,3.667,0,0,0-.97-2.663,3.318,3.318,0,0,0-2.5-1,4.185,4.185,0,0,0-2.687.935A6.051,6.051,0,0,0,211.2,43.9a9.621,9.621,0,0,0-.652,3.281,4.17,4.17,0,0,0,1.01,2.949,3.316,3.316,0,0,0,2.54,1.091,3.978,3.978,0,0,0,3.226-1.645,8.78,8.78,0,0,0,1.862-5.668Z" transform="translate(-127.484 -30.555)" fill="#e6e6e6"/>
        <path id="Path_77" data-name="Path 77" d="M237.368,34.565h4.675l-3.622,17.3h-4.669Zm1.368-6.58h4.675l-.88,4.234h-4.675Z" transform="translate(-135.685 -27.986)" fill="#e6e6e6"/>
        <path id="Path_78" data-name="Path 78" d="M250.589,37.137h4.43l-.456,2.246a12.2,12.2,0,0,1,3.1-2.043,7.709,7.709,0,0,1,3.038-.609,4.566,4.566,0,0,1,3.362,1.221,4.353,4.353,0,0,1,1.229,3.241,20.6,20.6,0,0,1-.537,3.454l-2.035,9.789h-4.675l2.052-9.823a20.989,20.989,0,0,0,.456-2.621,1.879,1.879,0,0,0-.528-1.411,2.037,2.037,0,0,0-1.474-.511,4.134,4.134,0,0,0-2.28.863,5.992,5.992,0,0,0-1.971,2.28,19.26,19.26,0,0,0-1.174,4.121l-1.481,7.1h-4.675Z" transform="translate(-139.573 -30.557)" fill="#e6e6e6"/>
      </g>
    </g>
  </g>
</svg>
