<svg xmlns="http://www.w3.org/2000/svg" xmlns:xlink="http://www.w3.org/1999/xlink" width="172.235" height="60" viewBox="0 0 172.235 60">
  <defs>
    <clipPath id="clip-path">
      <rect id="Rectangle_30" data-name="Rectangle 30" width="172.235" height="60" transform="translate(564 2636)" fill="#e6e6e6"/>
    </clipPath>
  </defs>
  <g id="Mask_Group_12" data-name="Mask Group 12" transform="translate(-564 -2636)" clip-path="url(#clip-path)">
    <g id="Ethereum_logo" data-name="Ethereum logo" transform="translate(564 2646.398)">
      <path id="Path_60" data-name="Path 60" d="M83.354,30.421H81.463V27.248a1.556,1.556,0,0,0-.537-1.186,1.592,1.592,0,0,0-1.291-.358,1.553,1.553,0,0,0-1.284,1.551v3.159H76.575a1.579,1.579,0,0,0-1.558,1.56,1.542,1.542,0,0,0,1.558,1.558h1.776v10.39a1.561,1.561,0,0,0,1.558,1.56,1.579,1.579,0,0,0,1.558-1.56V33.539h1.891a1.542,1.542,0,0,0,1.56-1.558A1.561,1.561,0,0,0,83.354,30.421Z" transform="translate(-25.375 -15.594)" fill="#e6e6e6"/>
      <path id="Path_61" data-name="Path 61" d="M56.26,32.023h-.013a7.539,7.539,0,0,0-7.265,7.771,7.539,7.539,0,0,0,7.265,7.771,7.14,7.14,0,0,0,6.276-3.346l.027-.052a1.572,1.572,0,0,0,.165-1,1.536,1.536,0,0,0-.909-1.159,1.563,1.563,0,0,0-1.925.572,4.043,4.043,0,0,1-3.627,1.853,4.185,4.185,0,0,1-3.871-3.089h9.6a1.578,1.578,0,0,0,1.579-1.572h0A7.562,7.562,0,0,0,56.26,32.023Zm-3.876,6.206a3.978,3.978,0,0,1,7.755,0Z" transform="translate(-17.717 -17.458)" fill="#e6e6e6"/>
      <path id="Path_62" data-name="Path 62" d="M102.09,27.659a5.974,5.974,0,0,0-3.522,1.148V18.621a1.56,1.56,0,0,0-1.558-1.558,1.579,1.579,0,0,0-1.56,1.558V41.327a1.558,1.558,0,0,0,.537,1.188,1.6,1.6,0,0,0,1.291.358,1.553,1.553,0,0,0,1.284-1.553V36.133a1.938,1.938,0,0,0-.016-.247c0-.084-.018-.179-.02-.216v-.064a5.121,5.121,0,0,1,1.12-3.838,3.207,3.207,0,0,1,2.447-.98c1.994,0,2.9,1.889,2.9,3.643v6.9a1.542,1.542,0,0,0,1.558,1.56,1.561,1.561,0,0,0,1.558-1.56V34.418C108.115,31.141,106,27.659,102.09,27.659Z" transform="translate(-31.384 -13.058)" fill="#e6e6e6"/>
      <path id="Path_63" data-name="Path 63" d="M203.474,32.569l-.034-.011a1.536,1.536,0,0,0-1.366.243,1.572,1.572,0,0,0-.637,1.252v4.425c0,2.871-.4,6.165-3.486,6.165-1.994,0-2.9-1.887-2.9-3.642V34.061A1.56,1.56,0,0,0,193.49,32.5a1.579,1.579,0,0,0-1.558,1.558v6.949a7.4,7.4,0,0,0,1.517,4.611,5.724,5.724,0,0,0,8.086.855A1.54,1.54,0,0,0,203,47.5a1.56,1.56,0,0,0,1.558-1.56V34.082a1.594,1.594,0,0,0-1.086-1.513Z" transform="translate(-59.761 -17.597)" fill="#e6e6e6"/>
      <path id="Path_64" data-name="Path 64" d="M127.562,32.023h-.013a7.541,7.541,0,0,0-7.267,7.771,7.541,7.541,0,0,0,7.267,7.771,7.14,7.14,0,0,0,6.276-3.346l.027-.052a1.572,1.572,0,0,0,.165-1,1.536,1.536,0,0,0-.909-1.159,1.563,1.563,0,0,0-1.925.572,4.043,4.043,0,0,1-3.627,1.853,4.185,4.185,0,0,1-3.871-3.089h9.6a1.579,1.579,0,0,0,1.581-1.572h0A7.553,7.553,0,0,0,127.562,32.023Zm-3.876,6.206a3.975,3.975,0,0,1,7.75,0Z" transform="translate(-38.688 -17.458)" fill="#e6e6e6"/>
      <path id="Path_65" data-name="Path 65" d="M233.432,32.074a6.071,6.071,0,0,0-4.82,2.4,5.679,5.679,0,0,0-4.686-2.391,6.024,6.024,0,0,0-3.631,1.211,1.542,1.542,0,0,0-.431-.6,1.592,1.592,0,0,0-1.291-.358,1.552,1.552,0,0,0-1.284,1.551v11.86a1.556,1.556,0,0,0,.537,1.188,1.574,1.574,0,0,0,1.025.372,1.625,1.625,0,0,0,.261-.021,1.553,1.553,0,0,0,1.3-1.553v-5.1a1.522,1.522,0,0,0,0-.417V40.2a5.585,5.585,0,0,1,1.134-4.114,3.144,3.144,0,0,1,2.388-.894c2.291,0,2.9,2.264,2.9,3.6v6.952a1.542,1.542,0,0,0,1.558,1.56,1.56,1.56,0,0,0,1.558-1.56V40.376c0-1.789.73-5.187,3.488-5.187,2.289,0,2.9,2.264,2.9,3.6v6.952a1.542,1.542,0,0,0,1.558,1.56,1.561,1.561,0,0,0,1.56-1.56V38.79C239.458,35.534,237.345,32.074,233.432,32.074Z" transform="translate(-67.219 -17.473)" fill="#e6e6e6"/>
      <path id="Path_66" data-name="Path 66" d="M171.663,32.023h-.014a7.539,7.539,0,0,0-7.265,7.771,7.539,7.539,0,0,0,7.265,7.771,7.138,7.138,0,0,0,6.276-3.346l.029-.052a1.572,1.572,0,0,0,.165-1,1.536,1.536,0,0,0-.909-1.159,1.563,1.563,0,0,0-1.925.572,4.044,4.044,0,0,1-3.629,1.853,4.185,4.185,0,0,1-3.869-3.089h9.591a1.579,1.579,0,0,0,1.581-1.572h0A7.55,7.55,0,0,0,171.663,32.023Zm-3.876,6.206a3.975,3.975,0,0,1,7.75,0Z" transform="translate(-51.659 -17.458)" fill="#e6e6e6"/>
      <path id="Path_67" data-name="Path 67" d="M154.752,32.4a5.8,5.8,0,0,0-3.527,1.329,1.559,1.559,0,0,0-.52-.952,1.6,1.6,0,0,0-1.291-.358,1.554,1.554,0,0,0-1.286,1.551V45.8a1.547,1.547,0,0,0,1.567,1.56,1.689,1.689,0,0,0,.266-.021,1.552,1.552,0,0,0,1.284-1.553V40.595c0-1.365.358-4.593,3.738-5.083a1.554,1.554,0,0,0,1.384-1.592,1.461,1.461,0,0,0-.451-1.055A1.651,1.651,0,0,0,154.752,32.4Z" transform="translate(-46.877 -17.57)" fill="#e6e6e6"/>
      <path id="Path_68" data-name="Path 68" d="M16.942,50,4.69,42.9,16.942,59.861,29.192,42.9l-12.25,7.113Z" transform="translate(-4.69 -20.657)" fill="#e6e6e6"/>
      <path id="Path_69" data-name="Path 69" d="M29.192,31.352,16.942,11.39,4.69,31.352l12.252,7.113h0Z" transform="translate(-4.69 -11.39)" fill="#e6e6e6"/>
    </g>
  </g>
</svg>
