<?xml version="1.0" encoding="UTF-8"?><svg id="Layer_2" xmlns="http://www.w3.org/2000/svg" viewBox="0 0 580.33 220.12"><defs><style>.cls-1{fill:#fff;}</style></defs><g id="Layer_1-2"><g><g><path class="cls-1" d="M230.76,0h-32.72l-66.97,134.6-32.5-41.3h0s28.68-10.52,28.68-42.38S107.4,0,81.29,0H0V140.64H28.23v-40.94h36.84l32.4,41.18h38.53l-.19-.24h25.31L215.13,31.57l54.27,109.08h32.72L232.5,0h-1.74ZM66.84,26.81h14.45s18.8,3.4,18.8,23.24-14.62,22.85-20.02,22.85H28.23V26.81h38.61Z"/><polygon class="cls-1" points="383.1 70.38 449.09 0 408.47 0 352.81 56.92 338.03 56.92 338.03 0 311.23 0 311.23 56.92 311.23 83.73 311.23 140.64 338.03 140.64 338.03 83.73 353.66 83.73 413.69 140.88 454.31 140.88 383.1 70.38"/><polygon class="cls-1" points="493.65 113.84 493.65 83.73 577.9 83.73 577.9 56.92 493.65 56.92 493.65 26.81 580.33 26.81 580.33 0 493.65 0 471.19 0 466.84 0 466.84 140.64 471.19 140.64 493.65 140.64 580.33 140.64 580.33 113.84 493.65 113.84"/><polygon class="cls-1" points="181.6 115.5 198.65 132.91 215.09 116.2 231.53 132.91 248.58 115.5 215.09 81.38 181.6 115.5"/><polygon class="cls-1" points="215.06 124.38 199.83 140.88 230.29 140.88 215.06 124.38"/></g><g><polygon class="cls-1" points="395.79 161.38 386.97 161.38 383.37 161.38 365.34 205.38 347.32 161.38 343.51 161.38 334.9 161.38 332.64 161.38 332.64 218.39 343.51 218.39 343.51 181.08 359.8 218.39 360.02 218.39 370.67 218.39 370.88 218.39 386.97 181.57 386.97 218.39 397.83 218.39 397.83 161.38 395.79 161.38"/><path class="cls-1" d="M325.37,190.06c0-16.6-14.21-30.06-31.75-30.06s-31.75,13.46-31.75,30.06,14.21,30.06,31.75,30.06,31.75-13.46,31.75-30.06Zm-51.65,0c0-10.37,8.91-18.77,19.9-18.77s19.9,8.4,19.9,18.77-8.91,18.77-19.9,18.77-19.9-8.4-19.9-18.77Z"/><path class="cls-1" d="M259.35,198.46h-12.7c-3.27,6.15-10.01,10.37-17.79,10.37-10.99,0-19.9-8.4-19.9-18.77s8.91-18.77,19.9-18.77c7.49,0,14,3.9,17.4,9.67h12.87c-4.07-12.15-16.08-20.95-30.27-20.95-17.53,0-31.75,13.46-31.75,30.06s14.21,30.06,31.75,30.06c14.46,0,26.65-9.15,30.49-21.66Z"/><circle class="cls-1" cx="188.71" cy="213.56" r="6.21"/></g></g></g></svg>