<svg xmlns="http://www.w3.org/2000/svg" width="159.678" height="30" viewBox="0 0 159.678 30">
  <g id="Group_20" data-name="Group 20" transform="translate(-880.161 -3086)">
    <g id="Layer_2" data-name="Layer 2" transform="translate(792.616 3054.163)">
      <g id="yXywv0" transform="translate(161.198 31.837)">
        <path id="Path_145" data-name="Path 145" d="M169.879,163.44a4.923,4.923,0,0,1-3.642,1.249,5.312,5.312,0,0,1-4.951-4.88c-.338-2.556.26-4.8,2.45-6.369a5.257,5.257,0,0,1,7.325,1.257,5.587,5.587,0,0,1,.391.647c.223.453.208.7-.3.823-.072,0-.135.052-.2.072-.4.146-.8.484-1.212.406s-.427-.645-.655-.967a2.832,2.832,0,0,0-4.744.156,5.143,5.143,0,0,0-.127,5.3,2.988,2.988,0,0,0,3.236,1.437,2.628,2.628,0,0,0,2.164-2.05c.127-.474,0-.588-.463-.562-.546.032-1.1,0-1.65,0s-.677-.156-.682-.66c0-1.249-.025-1.249,1.182-1.249h3.246c.381,0,.52.121.489.521v5.2c0,.521-.223.7-.707.667a2.694,2.694,0,0,0-.287,0C170.165,164.429,169.53,164.538,169.879,163.44Z" transform="translate(-161.198 -137.161)" fill="#557086"/>
        <path id="Path_146" data-name="Path 146" d="M161.979,37.639v-5.2c0-.277-.067-.588.427-.588,1.706.057,3.419-.11,5.12.1a3.4,3.4,0,0,1,2.991,2.793,3.28,3.28,0,0,1-1.768,3.809c-.364.188-.359.328-.188.635.692,1.238,1.358,2.487,2.082,3.72.234.416.223.573-.322.567-2.3-.042-1.748.218-2.757-1.592-.438-.776-.833-1.561-1.259-2.351-.183-.334-1.805-.562-2.024-.277a.889.889,0,0,0-.074.479v2.96c0,.562-.229.762-.774.776-1.405.042-1.405.052-1.405-1.379Zm2.175-2.082v1.363c0,.24,0,.432.334.421a15.213,15.213,0,0,0,2.443-.083,1.592,1.592,0,0,0,1.4-1.761V35.47a1.634,1.634,0,0,0-1.523-1.614,7,7,0,0,0-.863-.052c-1.786-.042-1.786-.042-1.786,1.743Z" transform="translate(-161.877 -31.837)" fill="#557086"/>
        <path id="Path_147" data-name="Path 147" d="M330.049,180.493c2.019-1.352,3.313-1.295,4.808.2a3.457,3.457,0,0,1,3.47-1.041,2.326,2.326,0,0,1,1.9,2.316c.037,1.8,0,3.605.032,5.411,0,.443-.161.645-.635.661-1.368.062-1.368.077-1.368-1.286v-3.824c0-.92-.292-1.3-.984-1.461a1.65,1.65,0,0,0-1.768.826,3.281,3.281,0,0,0-.364,1.676v3.459c0,.474-.135.62-.613.614-1.379,0-1.379,0-1.379-1.343v-3.532c0-1.041-.406-1.624-1.172-1.728a1.79,1.79,0,0,0-1.81,1.358,9.086,9.086,0,0,0-.182,2.653v1.871c0,.52-.218.729-.744.713-1.562-.042-1.244.182-1.259-1.234v-6.059c0-.343-.025-.744.349-.873a2.657,2.657,0,0,1,1.56,0C330.1,179.905,329.94,180.249,330.049,180.493Z" transform="translate(-306.795 -160.775)" fill="#557086"/>
        <path id="Path_148" data-name="Path 148" d="M635.661,187.044a4.071,4.071,0,0,1-2.519.754,3.779,3.779,0,0,1-1.461-.343c-1.7-.791-2.45-3.183-1.676-5.291a3.642,3.642,0,0,1,4.324-2.242,3.815,3.815,0,0,1,1.295.749,1.85,1.85,0,0,1,2.019-.562c.151.127.089.312.089.468,0,2.4.031,4.813,0,7.216-.037,1.936-.889,2.831-2.793,3.122a6.7,6.7,0,0,1-3-.145,2.6,2.6,0,0,1-1.823-1.874c-.127-.39,0-.521.381-.521H631.8a.572.572,0,0,1,.52.213,2.081,2.081,0,0,0,2.554.625C635.567,188.9,635.822,188.256,635.661,187.044Zm-3.855-3.2a1.917,1.917,0,0,0,1.987,2.138,2.2,2.2,0,1,0-1.987-2.165Z" transform="translate(-570.224 -161.02)" fill="#557086"/>
        <path id="Path_149" data-name="Path 149" d="M440.01,159.215a3.646,3.646,0,0,1,2.835-.762,4.148,4.148,0,0,1,3.122,4.766,6.654,6.654,0,0,1-.254,1.2,3.485,3.485,0,0,1-5.557,1.955c-.328.937-1.113.474-1.685.49s-.433-.593-.433-.957v-9.82c0-.588.141-.79.75-.762,1.436.067,1.253-.218,1.269,1.27C440.015,157.417,440.01,158.249,440.01,159.215Zm3.923,3.428a7.669,7.669,0,0,0-.183-.957,1.841,1.841,0,0,0-1.727-1.4,1.9,1.9,0,0,0-1.862,1.332,3.251,3.251,0,0,0,.088,2.46,1.727,1.727,0,0,0,1.629,1.113,1.872,1.872,0,0,0,1.758-1.04,3.652,3.652,0,0,0,.3-1.52Z" transform="translate(-402.881 -139.644)" fill="#557086"/>
        <path id="Path_150" data-name="Path 150" d="M684.734,42.995a1.874,1.874,0,0,1-1.951.557c-.183-.109-.141-.292-.141-.453V32.585c0-.433.156-.589.588-.614,1.374-.077,1.374-.089,1.374,1.337v1.944c0,.364.047.567.479.328,2.6-1.421,5.031.416,5.406,2.976a6.058,6.058,0,0,1-.072,2.144C689.967,42.868,687.417,45.014,684.734,42.995Zm3.755-3.642a6.494,6.494,0,0,0-.067-.785,1.957,1.957,0,0,0-1.836-1.65,1.777,1.777,0,0,0-1.871,1.386,3.514,3.514,0,0,0,.208,2.6,1.739,1.739,0,0,0,1.718.967,1.639,1.639,0,0,0,1.508-1.041,3.294,3.294,0,0,0,.338-1.461Z" transform="translate(-616.44 -31.929)" fill="#557086"/>
        <path id="Path_151" data-name="Path 151" d="M378.726,57.731a3.458,3.458,0,0,1,5.53,1.488,5.565,5.565,0,0,1,.119,3.809,3.6,3.6,0,0,1-5.665,1.768c0,.848-.037,1.624,0,2.394.036.618-.151.848-.8.826-1.211-.047-1.217,0-1.217-1.223V58.5c0-1.561-.2-1.333,1.478-1.369C378.59,57.118,378.763,57.258,378.726,57.731Zm-.037,3.428c-.042,1.426.635,2.4,1.728,2.512,1.322.127,2.19-.816,2.2-2.412,0-1.441-.786-2.445-1.961-2.487s-1.93.936-1.966,2.383Z" transform="translate(-349.328 -53.709)" fill="#557086"/>
        <path id="Path_152" data-name="Path 152" d="M263.316,187.911h-1.884c-.094,0-.254,0-.275-.036-.381-.734-.818-.188-1.212-.042a3.991,3.991,0,0,1-2.6.094,2.5,2.5,0,0,1-1.832-2.285,2.6,2.6,0,0,1,1.561-2.467,11.267,11.267,0,0,1,2.222-.583c.348-.089.707-.141,1.04-.245.235-.067.588-.041.593-.4a.86.86,0,0,0-.442-.776,1.847,1.847,0,0,0-2.507.724.426.426,0,0,1-.5.291l-.717-.041c-.927-.063-1.041-.208-.656-1.041a2.468,2.468,0,0,1,1.561-1.4,5.938,5.938,0,0,1,3.475-.089,2.116,2.116,0,0,1,1.827,2.326c.025,1.488,0,2.981,0,4.469A2.344,2.344,0,0,0,263.316,187.911Zm-4.323-1.56c1.421,0,2.112-.744,1.977-2.081,0-.2,0-.374-.312-.292-.734.2-1.493.322-2.227.521a.91.91,0,0,0-.645,1.384,1.25,1.25,0,0,0,1.186.474Z" transform="translate(-243.537 -160.664)" fill="#557086"/>
        <path id="Path_153" data-name="Path 153" d="M242,60.955c-.8,0-1.587.037-2.383,0-.588-.032-.567.2-.395.635a2.412,2.412,0,0,0,3.809.754c.176-.161.281-.546.608-.39a11.066,11.066,0,0,1,1.415.843c.1.062-.042.207-.109.3a4.918,4.918,0,0,1-4.771,1.728,3.925,3.925,0,0,1-3.206-3.459,4.465,4.465,0,0,1,1.758-4.579,4.032,4.032,0,0,1,6.249,2.9c.213,1.523.281,1.249-1.108,1.27C243.248,60.966,242.624,60.955,242,60.955Zm-1.036-1.462h1.431c.474,0,.521-.187.375-.566a1.706,1.706,0,0,0-1.794-1.135A1.941,1.941,0,0,0,239.2,59.14c-.083.328.057.363.317.358.479-.01.957,0,1.436,0Z" transform="translate(-227.277 -53.026)" fill="#557086"/>
        <path id="Path_154" data-name="Path 154" d="M779.515,61.071H777.06c-.474,0-.521.171-.39.561a2.363,2.363,0,0,0,3.085,1.281,2.388,2.388,0,0,0,.739-.484.75.75,0,0,1,1.042-.19.729.729,0,0,1,.1.08c1.13.7,1.143.7.127,1.561-2.539,2.18-6.441,1.124-7.211-1.946a4.539,4.539,0,0,1,1.971-5.2,4.1,4.1,0,0,1,6.05,3.871c0,.349-.114.463-.453.458C781.243,61.06,780.38,61.071,779.515,61.071Zm-1.04-1.462h1.436c.381,0,.452-.109.338-.462a1.722,1.722,0,0,0-1.738-1.244,1.935,1.935,0,0,0-1.836,1.332c-.089.312.037.381.312.381.508-.01,1.009,0,1.513,0Z" transform="translate(-696.546 -53.141)" fill="#557086"/>
        <path id="Path_155" data-name="Path 155" d="M450.664,65.578a4.16,4.16,0,0,1-4.208-4.114,3.611,3.611,0,0,1,.015-.406,4.109,4.109,0,0,1,4.505-4.163,4.168,4.168,0,0,1,3.975,4.511A4.088,4.088,0,0,1,450.664,65.578Zm2.158-4.386a2.747,2.747,0,0,0-.254-1.228,1.972,1.972,0,0,0-2-1.238,1.9,1.9,0,0,0-1.815,1.363,3.2,3.2,0,0,0,.067,2.326,2.082,2.082,0,0,0,2.539,1.243,2.289,2.289,0,0,0,1.461-2.467Z" transform="translate(-410.241 -53.711)" fill="#557086"/>
        <path id="Path_156" data-name="Path 156" d="M522.64,57.7a3.75,3.75,0,0,1,2.666-.962A2.378,2.378,0,0,1,527.684,59c.083,1.893.047,3.8.072,5.723,0,.353-.134.519-.52.519-1.508.121-1.5.127-1.5-1.362v-3.61c0-.917-.421-1.426-1.118-1.523a1.634,1.634,0,0,0-1.827,1.082,3.714,3.714,0,0,0-.192,1.348V64.5c0,.52-.121.739-.687.734-1.379,0-1.379.027-1.379-1.352V57.966c0-.972,0-.972.947-.978a2.889,2.889,0,0,0,.363,0C522.311,56.931,522.686,57,522.64,57.7Z" transform="translate(-474.913 -53.574)" fill="#557086"/>
        <path id="Path_157" data-name="Path 157" d="M589.531,65.282a5.726,5.726,0,0,1-3.428-1.143c-.317-.24-.359-.411,0-.635a2.513,2.513,0,0,0,.442-.369c.391-.416.708-.552,1.239-.084a2.691,2.691,0,0,0,2.6.453c.411-.116.781-.334.781-.828s-.428-.578-.807-.672a15.581,15.581,0,0,1-2.793-.7,2.223,2.223,0,0,1-.614-3.834,2.4,2.4,0,0,1,.781-.521,4.886,4.886,0,0,1,4.951.635c.4.3.568.588.052.932a1.092,1.092,0,0,0-.208.2c-.416.453-.729.791-1.3.057a2.141,2.141,0,0,0-2.139-.561c-.422.072-.826.239-.863.729s.4.68.8.774c.749.171,1.51.3,2.259.458a2.342,2.342,0,0,1,2.081,1.914,2.639,2.639,0,0,1-1.4,2.638A4.687,4.687,0,0,1,589.531,65.282Z" transform="translate(-531.94 -53.414)" fill="#557086"/>
        <path id="Path_158" data-name="Path 158" d="M314.049,65.311a5.459,5.459,0,0,1-3.053-1.1c-.334-.244-.422-.442,0-.682a1.1,1.1,0,0,0,.223-.182c.479-.494.868-.8,1.56-.161a2.55,2.55,0,0,0,2.539.333.825.825,0,0,0,.687-.821c0-.463-.395-.557-.754-.635-.771-.178-1.561-.307-2.316-.52a2.379,2.379,0,0,1-1.987-2.18,2.6,2.6,0,0,1,1.866-2.458,4.843,4.843,0,0,1,4.641.7c.467.344.623.651.067,1.041a.565.565,0,0,0-.1.094c-.442.521-.786.786-1.405.072a2.09,2.09,0,0,0-2.346-.456.731.731,0,0,0-.6.71.655.655,0,0,0,.567.65c.816.2,1.644.349,2.46.52a2.367,2.367,0,0,1,2.123,2.031,2.681,2.681,0,0,1-1.506,2.576,5.018,5.018,0,0,1-2.666.474Z" transform="translate(-291.73 -53.454)" fill="#557086"/>
        <path id="Path_159" data-name="Path 159" d="M566.635,180.593a3.7,3.7,0,0,1,2-1.041,2.539,2.539,0,0,1,3.152,2.412c.084,1.82.032,3.641.052,5.478,0,.4-.15.521-.556.562-1.451.083-1.451.093-1.451-1.332v-3.605a1.412,1.412,0,0,0-1.1-1.561,1.65,1.65,0,0,0-1.837,1.071,4.1,4.1,0,0,0-.229,1.415v3.387c0,.474-.166.625-.635.635-1.4,0-1.4.036-1.4-1.316v-6.139c0-.655.23-.873.838-.806a2.045,2.045,0,0,0,.432,0C566.416,179.651,566.776,179.782,566.635,180.593Z" transform="translate(-513.414 -160.734)" fill="#557086"/>
        <path id="Path_160" data-name="Path 160" d="M753.273,37.754v5.054c0,.583-.146.8-.762.791-1.3-.027-1.3,0-1.3-1.281V32.923c0-1.04,0-1.04,1.041-1.04a3.061,3.061,0,0,0,.432,0c.453-.058.567.15.562.583V37.73Z" transform="translate(-676.308 -31.869)" fill="#557086"/>
        <path id="Path_161" data-name="Path 161" d="M511.044,160.2v5.115c0,.52-.1.729-.677.724-1.332,0-1.332,0-1.332-1.333v-9.364c0-.317-.151-.781.229-.905a3.046,3.046,0,0,1,1.634,0c.223.057.127.381.127.588Q511.049,157.6,511.044,160.2Z" transform="translate(-464.852 -138.772)" fill="#557086"/>
        <path id="Path_162" data-name="Path 162" d="M536.905,185.636v-3.527c0-.406.1-.52.521-.52,1.5,0,1.5-.047,1.5,1.441v6.05c0,.6-.187.791-.786.776-1.243,0-1.243,0-1.243-1.249Z" transform="translate(-489.204 -162.578)" fill="#557086"/>
        <path id="Path_163" data-name="Path 163" d="M654.141,62.514V58.906c0-.369.094-.484.479-.52,1.533-.047,1.533-.061,1.533,1.483v5.911c0,.635-.151.9-.848.868-1.16-.057-1.165,0-1.165-1.2Z" transform="translate(-591.561 -55.003)" fill="#557086"/>
      </g>
      <rect id="Rectangle_47" data-name="Rectangle 47" width="1.56" height="1.56" rx="0.78" transform="translate(209.044 47.769)" fill="#557086"/>
      <rect id="Rectangle_48" data-name="Rectangle 48" width="1.56" height="1.56" rx="0.78" transform="translate(224.002 32.16)" fill="#557086"/>
    </g>
    <g id="Layer_2-2" data-name="Layer 2" transform="translate(768.561 3013.4)">
      <path id="Path_164" data-name="Path 164" d="M118.429,103.911V79.655l-4.651,4.922L111.6,82.354l7.269-7.484h3.182v29.041Z" transform="translate(0 -1.83)" fill="#557086"/>
      <path id="Path_165" data-name="Path 165" d="M194.8,94.722c0-3.876,3.308-6.535,6.921-7.62-3.353-.969-6.446-3.136-6.446-6.963-.017-5.233,5.083-7.539,9.913-7.539s9.967,2.312,9.967,7.539c0,3.828-3.128,6.008-6.479,6.963,3.585,1.085,6.919,3.748,6.919,7.62,0,4.921-4.705,7.878-10.407,7.878S194.8,99.687,194.8,94.722Zm17.155-.388c0-3.783-4.965-5.378-6.748-5.62-1.793.215-6.795,1.793-6.795,5.62,0,3.138,3.182,5.056,6.795,5.056s6.731-1.919,6.731-5.056Zm-.438-13.711c0-3-2.824-4.787-6.275-4.787s-6.273,1.783-6.273,4.787c0,3.531,4.579,4.705,6.318,5.01,1.686-.3,6.2-1.479,6.2-5.01Z" transform="translate(-67.076)" fill="#557086"/>
      <path id="Path_166" data-name="Path 166" d="M326.811,123.422v5.986h-3.047v-5.986H318.52v-2.779h5.262V114.87h3.029v5.773h5.262v2.779Z" transform="translate(-166.819 -34.078)" fill="#557086"/>
    </g>
  </g>
</svg>
