<svg xmlns="http://www.w3.org/2000/svg" xmlns:xlink="http://www.w3.org/1999/xlink" width="100" height="40" viewBox="0 0 100 40">
  <defs>
    <clipPath id="clip-path">
      <rect id="Rectangle_15" data-name="Rectangle 15" width="100" height="40" transform="translate(1480 1310)" fill="#7a7a7a"/>
    </clipPath>
  </defs>
  <g id="Mask_Group_4" data-name="Mask Group 4" transform="translate(-1480 -1310)" clip-path="url(#clip-path)">
    <g id="svgexport-21" transform="translate(1486.117 1310)">
      <g id="Group_7" data-name="Group 7" transform="translate(0 0)">
        <g id="Group_5" data-name="Group 5" transform="translate(27.81 21.692)">
          <path id="Path_16" data-name="Path 16" d="M0,0H4.593A4.725,4.725,0,0,1,9.424,4.76a4.734,4.734,0,0,1-4.85,4.778H2.5v3.827H0ZM2.5,2.306V7.232h1.91a2.415,2.415,0,0,0,2.5-2.472,2.41,2.41,0,0,0-2.5-2.454ZM9.9,8.019a5.308,5.308,0,0,1,5.328-5.584,4.51,4.51,0,0,1,3.453,1.5V2.654h2.481v10.71H18.684V11.973a4.46,4.46,0,0,1-3.49,1.611A5.372,5.372,0,0,1,9.9,8.019m8.911-.036a3.234,3.234,0,1,0-6.467,0,3.235,3.235,0,1,0,6.467,0" fill="#e6e6e6" fill-rule="evenodd"/>
          <path id="Path_17" data-name="Path 17" d="M37.369,14.162,32.959,3.983h2.647L38.6,11.2l2.83-7.213h2.608L37.626,19.635H35.11Z" transform="translate(-10.986 -1.328)" fill="#e6e6e6" fill-rule="evenodd"/>
        </g>
        <g id="Group_6" data-name="Group 6" transform="translate(0)">
          <path id="Path_18" data-name="Path 18" d="M104.994.6l.17,9.812H105.1L102.213.6H97.558V12.969h3.084l-.173-10.15h.069l3.1,10.15H108.1V.6Z" transform="translate(-32.519 -0.199)" fill="#e6e6e6" fill-rule="evenodd"/>
          <path id="Path_19" data-name="Path 19" d="M18.98.6,16.654,13.1h3.392L21.76,1.756h.07L23.5,13.1h3.37L24.56.6Z" transform="translate(-5.551 -0.199)" fill="#e6e6e6" fill-rule="evenodd"/>
          <path id="Path_20" data-name="Path 20" d="M44.294.6l-1.547,9.558h-.07L41.132.6H36.014l-.276,12.5h3.139l.078-11.236h.071L41.121,13.1H44.3L46.4,1.862h.069L46.546,13.1h3.139L49.407.6Z" transform="translate(-11.913 -0.199)" fill="#e6e6e6" fill-rule="evenodd"/>
          <path id="Path_21" data-name="Path 21" d="M5.824,9.372a1.617,1.617,0,0,1,.025.925,1.084,1.084,0,0,1-1.222.841A1.12,1.12,0,0,1,3.366,10l0-1.211H0v.964c0,2.788,2.2,3.631,4.559,3.631,2.268,0,4.135-.771,4.433-2.858A6.069,6.069,0,0,0,8.978,8.48c-.53-2.618-5.288-3.4-5.643-4.862a1.606,1.606,0,0,1-.014-.657,1.034,1.034,0,0,1,1.146-.839A1.067,1.067,0,0,1,5.632,3.254v.775H8.763V3.148C8.763.426,6.308,0,4.533,0,2.3,0,.481.737.148,2.775A4.323,4.323,0,0,0,.177,4.461c.544,2.555,5,3.293,5.647,4.911m40.781-.024a1.611,1.611,0,0,1,.024.915,1.073,1.073,0,0,1-1.209.831,1.11,1.11,0,0,1-1.249-1.122l0-1.2H40.839v.954c0,2.761,2.181,3.593,4.514,3.593,2.247,0,4.095-.762,4.39-2.829a6.009,6.009,0,0,0-.013-2.029C49.2,5.872,44.491,5.1,44.141,3.651A1.576,1.576,0,0,1,44.125,3,1.026,1.026,0,0,1,45.26,2.17a1.056,1.056,0,0,1,1.155,1.122v.766h3.1V3.186c0-2.7-2.431-3.116-4.188-3.116-2.206,0-4.011.727-4.34,2.747a4.23,4.23,0,0,0,.029,1.668c.537,2.531,4.952,3.261,5.591,4.864m10.53,1.679a1.128,1.128,0,0,0,1.2-.906,2.625,2.625,0,0,0,.029-.477V.4h3.175V9.359c0,.23-.02.7-.032.822-.219,2.332-2.07,3.089-4.376,3.089s-4.157-.757-4.377-3.089c-.011-.122-.035-.592-.029-.822V.4H55.9V9.644a2.378,2.378,0,0,0,.029.477,1.127,1.127,0,0,0,1.2.906M83.3,10.9a1.173,1.173,0,0,0,1.282-.907,2.584,2.584,0,0,0,.03-.475V7.7H83.323V5.878h4.443V9.229c0,.235-.008.407-.045.822-.207,2.277-2.188,3.09-4.411,3.09s-4.2-.813-4.413-3.09c-.035-.415-.042-.587-.043-.822V3.97c0-.222.027-.613.053-.822C79.187.811,81.086.058,83.31.058s4.172.745,4.4,3.089a8.112,8.112,0,0,1,.029.822v.417H84.579v-.7a2.933,2.933,0,0,0-.04-.476A1.143,1.143,0,0,0,83.286,2.3a1.161,1.161,0,0,0-1.25.907,3.079,3.079,0,0,0-.05.592V9.516a2.825,2.825,0,0,0,.029.475A1.176,1.176,0,0,0,83.3,10.9" transform="translate(0 0)" fill="#e6e6e6" fill-rule="evenodd"/>
        </g>
      </g>
    </g>
  </g>
</svg>
