<svg id="twitter" xmlns="http://www.w3.org/2000/svg" width="70" height="70" viewBox="0 0 70 70">
  <path id="twitter-2" data-name="twitter" d="M70,35A35,35,0,1,0,35,70,35,35,0,0,0,70,35ZM16.154,47.438A14.737,14.737,0,0,0,18,47.555a14.929,14.929,0,0,0,9.6-3.5A7.853,7.853,0,0,1,20.38,38.3a7.226,7.226,0,0,0,3.49-.118,8.217,8.217,0,0,1-6.2-8.139v-.105a7.4,7.4,0,0,0,3.5,1.069,8.673,8.673,0,0,1-2.39-11.044,21.806,21.806,0,0,0,15.938,8.807,8.614,8.614,0,0,1-.2-1.868,7.813,7.813,0,0,1,7.732-8.06,7.694,7.694,0,0,1,5.645,2.663,14.8,14.8,0,0,0,4.91-1.893,7.923,7.923,0,0,1-3.4,4.442,14.73,14.73,0,0,0,4.442-1.215,15.9,15.9,0,0,1-3.86,4.149c.016.35.022.7.022,1.05,0,10.735-7.78,23.116-22,23.11A20.823,20.823,0,0,1,16.154,47.438Z" fill="#8ca3b8"/>
</svg>
