<svg id="youtube" xmlns="http://www.w3.org/2000/svg" width="70" height="70" viewBox="0 0 70 70">
  <path id="Path_131" data-name="Path 131" d="M53.48,43.33c-.735,2.733-1.643,4.06-4.165,4.55,0,0-6.542.493-13.37.493-7.525,0-15.435-.493-15.435-.493-2.555-.315-3.745-1.995-4.3-4.55a61.34,61.34,0,0,1-.735-8.785,56.726,56.726,0,0,1,.735-8.467c.735-2.625,1.432-4.238,4.3-4.553,0,0,7.108-.385,14.283-.385,7.248,0,14.525.385,14.525.385,2.732.315,3.362,1.823,4.165,4.553a65.744,65.744,0,0,1,.735,9.027,52.7,52.7,0,0,1-.735,8.225M35,0A35,35,0,1,0,70,35,34.97,34.97,0,0,0,35,0" fill="#8ca3b8"/>
  <path id="Path_132" data-name="Path 132" d="M449.463,412.72l11.2-7.243-11.2-7.25Z" transform="translate(-418.738 -371.004)" fill="#8ca3b8"/>
</svg>
